<svg id="Layer_1" data-name="Layer 1" xmlns="http://www.w3.org/2000/svg" viewBox="0 0 272.4 233.71"><title>madeinbristol</title><path d="M109,103.27a19.87,19.87,0,0,1,.12,2.16,19.4,19.4,0,0,0,.12,2.16c0,0.64,0,1.28.06,1.92s0.06,1.28.06,1.92q0.12,2.88.12,5.76t-0.24,5.88c0,0.56,0,1.12.06,1.68s0.06,1.16.06,1.8a4.84,4.84,0,0,0,.36,1.92q0.37,1,.67,1.8a5.24,5.24,0,0,1,.31,1.8,1.8,1.8,0,0,0,.25.72q0.61,1.08,1.28,2.1a6.07,6.07,0,0,0,1.78,1.74q0.85,0.6,1.71,1.08t1.81,1a16.23,16.23,0,0,0,3.54,1.5q1.86,0.54,3.78,1a5.92,5.92,0,0,0,3.12-.12,20.66,20.66,0,0,0,10.56-6.6,5.62,5.62,0,0,0,1-1.26q0.36-.66.72-1.38a8.9,8.9,0,0,0,.66-2.22,6.61,6.61,0,0,0-.06-2.34,19.84,19.84,0,0,0-2.52-7.2,6.94,6.94,0,0,0-5.28-3.84,0.43,0.43,0,0,0-.48.06,0.31,0.31,0,0,0-.12.42,4.68,4.68,0,0,1,.3,1,2.93,2.93,0,0,0,.3.9,18.42,18.42,0,0,1,.84,9.12,20.25,20.25,0,0,0-.36,2.1q-0.12,1-.36,2.1a6.23,6.23,0,0,1-1.74,3.72,7.12,7.12,0,0,1-3.66,2l-1,.24-1,.24a6,6,0,0,1-5.16-1.44,13.17,13.17,0,0,1-3.48-4.44,11.61,11.61,0,0,1-.9-2.4,16.35,16.35,0,0,1-.42-2.52q-0.12-2.4-.24-4.62t-0.24-4.62q-0.24-3.12-.24-6.36t0.24-6.36q0.12-1.32.24-4.56t0.12-6.9v-6.9q0-3.24-.12-4.68-0.24-3.84-.18-9.12t0.3-9.12q0.12-1.2.12-2.34V59.35q-0.12-1.68-.18-3.3t-0.06-3.3q-0.12-1.44-.12-2.88T115.38,47q-0.12-3.48,0-7.08a50.43,50.43,0,0,0,.18-5.46A36.94,36.94,0,0,0,115,29a4.68,4.68,0,0,1,1.44-4.2q0.24-.24.6-0.54c0.24-.2.48-0.42,0.72-0.66a1.74,1.74,0,0,1,.36-0.3,1.71,1.71,0,0,0,.36-0.3,1.68,1.68,0,0,0-.84-2.76,6.44,6.44,0,0,0-2.3-.54q-1.22-.06-2.44-0.06-1,.12-1.89.18a6.12,6.12,0,0,1-1.89-.18,1.51,1.51,0,0,0-1.2,0,2.06,2.06,0,0,0-.6,1.2q-0.24,1-.54,1.8t-0.54,1.68q-0.24,1.32-.54,2.46a14.84,14.84,0,0,0-.42,2.46q-0.12,1.32-.3,2.46a10.91,10.91,0,0,1-.66,2.34,8.4,8.4,0,0,0-.48,1.92l-0.24,1.92a19.35,19.35,0,0,0-.3,2.58,6.13,6.13,0,0,1-.66,2.46,1,1,0,0,0-.12.6q-0.48,3.48-1.26,6.78T99.9,57.07q-0.6,3.12-1.32,6.18t-1.44,6.18q-0.24,1-.48,2t-0.48,2c-0.16.4-.32,0.78-0.48,1.14a1.47,1.47,0,0,1-.84.78,1.25,1.25,0,0,1-.78-0.78c-0.12-.36-0.26-0.74-0.42-1.14a0.34,0.34,0,0,1-.12-0.24,1,1,0,0,0-.12-0.36q-0.6-3-1.32-5.82t-1.44-5.7q-0.6-2.4-1.2-4.74A48.23,48.23,0,0,0,88,52q-1.32-3.48-2.58-7a74.17,74.17,0,0,0-2.94-7,5.65,5.65,0,0,1,.6-6q0.6-.84,1.14-1.68l1.14-1.8a13.36,13.36,0,0,0,1-2,12.1,12.1,0,0,0,.66-2.22q0.36-1.92.54-3.84t0.3-3.84v-1a2.87,2.87,0,0,0-.24-1,19.28,19.28,0,0,0-.6-2.28q-0.36-1.08-.72-2.28c-0.16-.4-0.3-0.76-0.42-1.08a1.28,1.28,0,0,0-.78-0.72A13.48,13.48,0,0,1,82.8,6.49a27.7,27.7,0,0,0-2.22-2,15.91,15.91,0,0,0-4-2.52A28,28,0,0,0,72.06.43,4.38,4.38,0,0,0,69.42.07a18.4,18.4,0,0,0-6.48,1.56,14.89,14.89,0,0,0-2.52,1.74A7.41,7.41,0,0,0,58.5,5.95a16.63,16.63,0,0,0-.78,2.52,6.49,6.49,0,0,0-.06,2.64,25.49,25.49,0,0,0,.84,4.38,8.65,8.65,0,0,0,2.28,3.78l1.44,1.8a7.25,7.25,0,0,0,4.08,2.64A2.34,2.34,0,0,1,68,24.79a6.23,6.23,0,0,1,1.08,3,1.49,1.49,0,0,1-.72,1.8,2.43,2.43,0,0,1-1.8.24,3,3,0,0,1-1.32-.72l-1.38-.9-1.38-.9A17.16,17.16,0,0,0,61,26.23a13.6,13.6,0,0,0-1.44-.84q-3.12-1.8-6.12-3.72t-6.12-4q-0.84-.48-1.62-1t-1.74-1l-4.92-2q-2.52-1-5.16-1.86a44.84,44.84,0,0,0-5.64-1.32,24.1,24.1,0,0,0-5.88-.24q-1.68.12-3.18,0.36a11.75,11.75,0,0,0-3.06,1,54.57,54.57,0,0,0-5.28,2.52,21,21,0,0,0-7.2,6.24A17.57,17.57,0,0,0,2.4,22.69a9.83,9.83,0,0,0-.78,2.46,6,6,0,0,0-.3,1.38q-0.06.66-.18,1.38a18,18,0,0,0-.36,6.24,22.64,22.64,0,0,0,1.5,5.94,14.47,14.47,0,0,0,3.54,5.1,17.62,17.62,0,0,1,1.5,1.44,17.09,17.09,0,0,0,1.5,1.44A16.92,16.92,0,0,0,20.7,52.51c0.64,0,1.22,0,1.74-.06s1.06-.06,1.62-0.06a3.62,3.62,0,0,0,1.08-.12,36,36,0,0,0,3.3-1.62,13.2,13.2,0,0,0,2.94-2.22A15.86,15.86,0,0,0,35,43.51a16.38,16.38,0,0,0,.6-1.62,5.91,5.91,0,0,0,.24-1.74v-2.4q0-1.2-.12-2.4a15.1,15.1,0,0,0-1.5-5.64,11.43,11.43,0,0,0-3.9-4.32l-3.24-2.52a7.46,7.46,0,0,0-2.88-1.08,12.28,12.28,0,0,0-2.4-.24q-1.2,0-2.52-.12A12.75,12.75,0,0,0,8.82,26.11a34.94,34.94,0,0,1-2.76,3.12,1.57,1.57,0,0,0-.48,1.68q0.36,1.56,1.68.84L8.52,31l1.26-.78a9.66,9.66,0,0,1,3.06-1.56,15.79,15.79,0,0,1,3.42-.6,22.71,22.71,0,0,1,6.36.84,16.14,16.14,0,0,1,7.92,4.8,7.93,7.93,0,0,1,2.16,6.24,10.8,10.8,0,0,1-.12,1.62q-0.12.78-.24,1.62a2.79,2.79,0,0,1-.6,1.2q-1,1-1.74,1.8a23.38,23.38,0,0,1-1.74,1.68,5.73,5.73,0,0,1-2.52,1.56,13.15,13.15,0,0,1-2.16.3,8.31,8.31,0,0,0-2.16.42,29.26,29.26,0,0,1-3.78-.24,9.49,9.49,0,0,1-3.54-1.2q-1.44-1-2.88-1.86a26.64,26.64,0,0,1-2.76-2,11.2,11.2,0,0,1-3.84-5.52,22.14,22.14,0,0,1-1-3.18q-0.36-1.62-.6-3.3A15,15,0,0,1,7.38,20.59a15.4,15.4,0,0,1,4.8-3.3,17.92,17.92,0,0,1,5.76-1.38,19.38,19.38,0,0,0,2.16-.12,19.63,19.63,0,0,0,2.16-.36,15.83,15.83,0,0,1,5.16-.12,27.21,27.21,0,0,1,9.12,3.48l3.12,1.92a24.53,24.53,0,0,0,3.24,1.68q3.12,1.32,6,2.88a60.07,60.07,0,0,1,5.64,3.48q2,1.32,4.26,2.58a37.53,37.53,0,0,0,4.62,2.22,12.14,12.14,0,0,1,1.26.6,11.41,11.41,0,0,0,1.26.6,4.5,4.5,0,0,1,2.76,3.48,50.24,50.24,0,0,1,.72,9.84q0,1.92-.06,3.78T69.3,55.63q-0.12,3.48-.3,7.08a59.31,59.31,0,0,0,.06,7.08q0.24,4.56.24,9a82.38,82.38,0,0,0,.48,8.88,5.35,5.35,0,0,0,.06.78,0.74,0.74,0,0,1-.18.66,11.73,11.73,0,0,0-.78,1.62q-0.3.78-.54,1.62a13.2,13.2,0,0,1-1.68,3.36,1.4,1.4,0,0,1-.24.36,1.37,1.37,0,0,0-.24.36q-0.24.36,0.24,0.6h4q1.24,0,2.54.12a30.86,30.86,0,0,0,3.19.3,29.86,29.86,0,0,0,3.23-.06h0.48a0.49,0.49,0,0,0,.24-0.48,0.87,0.87,0,0,0-.36-0.84,5.69,5.69,0,0,1-1.5-1.62q-0.54-.9-1.14-1.86a9.32,9.32,0,0,1-1-2.16,19.79,19.79,0,0,1-.3-2.76q-0.06-1.44-.06-2.76,0.12-5,.12-10t0.12-10q0-4.92-.06-9.72t-0.18-9.72V41.59a2.27,2.27,0,0,1,.6-1.68c0.48-.32.8-0.32,1,0A9.5,9.5,0,0,1,79,42.67q1.32,3.6,2.53,7.2T84,57.19q0.6,1.68,1.08,3.48t1.08,3.48l2.53,7.92q0.24,1,.48,1.8a7.52,7.52,0,0,0,.72,1.68,2.32,2.32,0,0,1,.36,1.2q0.48,2.52.9,5T92,86.71A3.14,3.14,0,0,1,92.22,88a6.24,6.24,0,0,1-.3,1.32L91.19,92l-0.72,2.64a2.25,2.25,0,0,0-.12.72,2.25,2.25,0,0,1-.12.72,0.74,0.74,0,0,0,.84.84,1.89,1.89,0,0,0,2.41-1.08,10.32,10.32,0,0,0,.42-1.32,10.11,10.11,0,0,1,.42-1.32l0.48-1.68a14.13,14.13,0,0,1,.6-1.68,55.12,55.12,0,0,0,1.87-5.28q0.78-2.64,1.63-5.4,0.36-1.44.72-2.82a16.74,16.74,0,0,0,.48-2.94q0.24-1.68.6-3.24t0.72-3.24q0.72-3.36,1.44-6.66t1.57-6.66q0.6-2.76,1.14-5.52a52.6,52.6,0,0,0,.78-5.52,13.36,13.36,0,0,0,.3-2.16q0.06-1.08.18-2.16a3.7,3.7,0,0,1,1-2q0.6-.6.84,0.12a2.43,2.43,0,0,1,.48,1.56v2.28Q109,45.79,109,51.31t0.18,11.28q0.12,1.44.12,3.42v4q0,2-.06,4T109,77.47v25.8ZM84.78,21.61q-0.12,1.38-.36,2.7a5.38,5.38,0,0,1-1,2.34,12.79,12.79,0,0,1-1.74,1.86,1.83,1.83,0,0,1-1.32.6,4.49,4.49,0,0,1-1.44-.24,1.31,1.31,0,0,1-.36-0.24l-0.36-.36q-0.48-1-.9-1.86a9.48,9.48,0,0,1-.66-2,8.1,8.1,0,0,0-.72-2.52,2.55,2.55,0,0,0-1.08-1,7.61,7.61,0,0,0-3-.36,12.42,12.42,0,0,1-7.56-1.68,9.1,9.1,0,0,1-4.68-6.72,7.72,7.72,0,0,1,.12-3,4.76,4.76,0,0,1,3.12-3.48,22.24,22.24,0,0,1,2.64-.78,6.56,6.56,0,0,1,2.64-.06,10.64,10.64,0,0,0,2,.06,6.59,6.59,0,0,1,2,.18,22.29,22.29,0,0,1,4.56,1.68,15.19,15.19,0,0,1,4,2.88q0.6,0.6,1.14,1.2t1.14,1.2a5.89,5.89,0,0,1,1.8,4.32v2.52A10.21,10.21,0,0,1,84.78,21.61ZM71.52,41.53a3.82,3.82,0,0,1,.42.18,0.82,0.82,0,0,1,.72.6,0.79,0.79,0,0,1-.36.54,1.12,1.12,0,0,1-.72.3c-0.32,0-.48-0.12-0.48-0.36A1.26,1.26,0,0,1,71,42.13a4.15,4.15,0,0,0,.06-0.78A3.07,3.07,0,0,0,71.52,41.53Zm39.23,40.86q0.12-1.2,1.32-.72c0.24,0,.36.08,0.36,0.24s-0.12.24-.36,0.24a0.66,0.66,0,0,0-.72.36,6.72,6.72,0,0,1-.36.84,0.34,0.34,0,0,1-.24-0.12V82.39Zm-37-21.06a0.37,0.37,0,0,0-.54-0.3,3.62,3.62,0,0,1-1.08.12V60.79a1.2,1.2,0,0,1,.42-0.3,3.17,3.17,0,0,0,.42-0.18,0.69,0.69,0,0,1,.48.48,1.21,1.21,0,0,0,.84.12,0.48,0.48,0,0,0,.12.36,0.21,0.21,0,0,1-.24.24Q73.77,61.75,73.71,61.33Zm37.63-21.42c-0.32-.16-0.36-0.24-0.12-0.24,0-.08,0-0.1.12-0.06a0.2,0.2,0,0,1,.12.18q-0.24.6,0.18,0.66a4.7,4.7,0,0,1,.78.18,0.68,0.68,0,0,1,.24.36,0.51,0.51,0,0,1-.3.42,0.54,0.54,0,0,1-.54.06,0.67,0.67,0,0,1-.12-0.6,0.76,0.76,0,0,0-.36-1h0Zm-1.6-14.64a0.81,0.81,0,0,1,.36.72,0.79,0.79,0,0,0-.48.18,0.33,0.33,0,0,1-.48-0.06A0.82,0.82,0,0,1,109,25a0.56,0.56,0,0,1,.36-0.6A0.93,0.93,0,0,0,109.74,25.27Zm2.58,76.32a1,1,0,0,0,.66.24h0.6c0.24,0,.28.16,0.12,0.48a1.14,1.14,0,0,1-1,.24,0.81,0.81,0,0,1-.72-0.36,2.15,2.15,0,0,0-.6-0.6A0.88,0.88,0,0,1,112.32,101.59Zm-0.9-68.52c-0.48-.16-0.88-0.28-1.2-0.36-0.08,0-.12-0.08-0.12-0.24s0.12-.24.36-0.24a9.56,9.56,0,0,1,1,.36,0.24,0.24,0,0,1,0,.48h0ZM72.13,68.83a1.1,1.1,0,0,1-.6.6A0.42,0.42,0,0,1,71,68.95q-0.24-.72.24-0.72c0.56-.16.84,0,0.84,0.6h0ZM72.9,79.15V78.79a3.67,3.67,0,0,0,.42-0.24,0.75,0.75,0,0,1,.42-0.12c0.08-.08.24,0,0.48,0.12s0.18,0.26.06,0.3A0.77,0.77,0,0,0,74,79a3.87,3.87,0,0,1-1,.24,0.11,0.11,0,0,0-.12-0.12h0Zm40-25.8a0.5,0.5,0,0,1,.12.36,0.25,0.25,0,0,0-.18.06,0.24,0.24,0,0,1-.18.06c-0.16-.16-0.34-0.32-0.54-0.48s-0.42-.32-0.66-0.48a1.48,1.48,0,0,1,1.44.48h0ZM113.82,128a0.49,0.49,0,0,1-.12-0.36,0.79,0.79,0,0,1,0-.84c0.08-.08.18,0,0.3,0.12a1.19,1.19,0,0,1,.18.72v0.72ZM74.34,28.75l-0.12.12a0.69,0.69,0,0,1-.48.12,1,1,0,0,1-.36-0.72l0.12-.12a1.21,1.21,0,0,1,.84.6h0Zm4,8.52a0.42,0.42,0,0,1-.48-0.48l0.24-.12q0.6-.24.6,0.36h0c0,0.16-.12.24-0.36,0.24h0Zm8.52,19.08a0.21,0.21,0,0,1-.3,0A0.4,0.4,0,0,1,86.34,56a0.71,0.71,0,0,1,.36-0.36,0.32,0.32,0,0,1,.36.36,0.67,0.67,0,0,1-.24.36h0ZM69.42,2.95a0.42,0.42,0,0,1-.48-0.48c0-.16.12-0.24,0.36-0.24s0.48,0.12.48,0.36a0.32,0.32,0,0,1-.36.36h0ZM111.3,57.31c0,0.16-.12.24-0.36,0.24s-0.2-.16-0.12-0.24l0.24-.24h0ZM112,31.09a0.24,0.24,0,0,0-.06.18,0.47,0.47,0,0,1-.48-0.36l0.24-.24c0.24,0,.36.08,0.36,0.24A0.24,0.24,0,0,1,112,31.09ZM77,5a0.32,0.32,0,0,1-.36-0.36c0-.08.08-0.12,0.24-0.12a0.32,0.32,0,0,1,.36.36C77.22,4.95,77.14,5,77,5h0Zm7.2,5.64c-0.24,0-.36-0.08-0.36-0.24l0.12-.12,0.12-.12,0.36,0.36h0a0.35,0.35,0,0,1-.24.12h0ZM109,22.15s-0.06,0-.06-0.12,0.12-.12.36-0.12,0.28,0.08.12,0.24a0.49,0.49,0,0,1-.36.12C109,22.19,109,22.15,109,22.15Zm-37,30.12H71.7a1.08,1.08,0,0,1,.48-0.12l0.12,0.12H71.94ZM71.4,71.89a0.25,0.25,0,0,1,.06.18l-0.12.12A0.25,0.25,0,0,0,71.28,72a0.24,0.24,0,0,1-.06-0.18l0.12-.12h0A0.24,0.24,0,0,0,71.4,71.89Zm41.94,8.7-0.12-.12a0.35,0.35,0,0,0,.12-0.24c0.08,0,.12,0,0.12.06s0,0.06.12,0.06Z" style="fill:#47372d"/><path d="M148.14,71.71V61.39a19.22,19.22,0,0,0-.35-3.72c-0.08-.56-0.16-1.08-0.24-1.56s-0.16-1-.23-1.56a8.65,8.65,0,0,0-1.06-3.12,15,15,0,0,0-1.3-1.8q-0.71-.84-1.3-1.68a2.18,2.18,0,0,0-.94-0.72,12.16,12.16,0,0,0-6.52-1.86,13,13,0,0,0-6.9,2.46,8.91,8.91,0,0,0-4.2,6.72,15.05,15.05,0,0,0,.42,5.88,12.94,12.94,0,0,0,2.94,5.16q0.6,0.6,1.2,1.14t1.2,1.14a1,1,0,0,0,1.2.12,1,1,0,0,0,.36-1.08,3.68,3.68,0,0,0-.12-1.08,13.82,13.82,0,0,1-.36-3.12v-0.9a5.46,5.46,0,0,0-.12-1,13,13,0,0,1-.06-3.3q0.18-1.62.42-3.3a12.66,12.66,0,0,1,.72-2.64,3.13,3.13,0,0,1,2.64-2.28l1-.24,1-.24a2.8,2.8,0,0,1,3,1.44c0.16,0.4.32,0.78,0.48,1.14a5.49,5.49,0,0,1,.36,1.14q0.12,1,.24,1.8a18.08,18.08,0,0,0,.35,1.8q0.12,1.32.24,2.46t0.24,2.34a5,5,0,0,1-1.06,4q-1,1.32-2,2.64a6.42,6.42,0,0,1-2.52,1.92,40,40,0,0,1-4.5,2,40.42,40.42,0,0,0-4.5,2,9.75,9.75,0,0,0-3.36,2.88,6.91,6.91,0,0,1-.54,1.08,6.75,6.75,0,0,0-.54,1.08,15.12,15.12,0,0,0-1.38,5.22,12.22,12.22,0,0,0,.9,5.34,13.15,13.15,0,0,0,1.14,2.4,14.68,14.68,0,0,0,1.5,2,6.63,6.63,0,0,0,2.82,2,15.73,15.73,0,0,0,3.42.84,3.92,3.92,0,0,0,1.2-.24,21.15,21.15,0,0,0,5.64-2.64,2.77,2.77,0,0,1,.54-0.42l0.54-.3a1,1,0,0,1,1.32-.12,2.09,2.09,0,0,1,.6,1.08,3.41,3.41,0,0,1-.06.66,3.44,3.44,0,0,0-.06.66,2.63,2.63,0,0,0-.06,1.5,4.16,4.16,0,0,0,1.48.42,19.3,19.3,0,0,0,4,.06q2-.18,4-0.3a0.49,0.49,0,0,0,.36-0.12q0.48,0,.24-0.72-0.72-1.32-1.68-2.76a5,5,0,0,1-1-2.28q-0.24-2.4-.42-4.8t-0.18-4.8q-0.12-2.4-.06-4.8t0.06-4.8h-0.12Zm-6.36,8.52q0,1.2-.12,2.52a9,9,0,0,1-3.48,7.44,11.6,11.6,0,0,0-1.68,1.26,11.43,11.43,0,0,1-1.68,1.26,1.37,1.37,0,0,1-1.8-.12,8.14,8.14,0,0,1-.9-0.78,3,3,0,0,0-1-.66,2.87,2.87,0,0,1-1-1.56q-2.4-8,3-13.92a20.23,20.23,0,0,1,4.92-4l1.44-1.08a2.34,2.34,0,0,1,1.2-.48q1.2-.24,1.2.84a6.48,6.48,0,0,1,.12,1.44q0.12,1.32.12,2.7a17.2,17.2,0,0,1-.24,2.82A20.53,20.53,0,0,0,141.78,80.23Zm2.4-14.64a0.21,0.21,0,0,1-.24.24h-0.12a0.48,0.48,0,0,1-.12-0.36,0.79,0.79,0,0,0,.24-1q-0.24-.36,0-0.54a4.56,4.56,0,0,0,.48-0.42,0.48,0.48,0,0,1,.72-0.24c0.08,0,.12.16,0.12,0.48q0.12,0.12-.36.36a1.72,1.72,0,0,0-.72.42,1.56,1.56,0,0,0,0,.9v0.12Zm-0.18,28a3.81,3.81,0,0,1,.66.36v0.36l-0.12.12a1,1,0,0,1-.78-0.06l-0.66-.42V93.67l0.24-.24h0A1.79,1.79,0,0,1,144,93.55ZM146,87a1.6,1.6,0,0,1,.42-0.3l0.24,0.12a0.49,0.49,0,0,1-.12.36,3.92,3.92,0,0,1-1.2.24c-0.24.24-.36,0.16-0.36-0.24-0.08-.08,0-0.2.24-0.36a0.25,0.25,0,0,1,.18.06,0.24,0.24,0,0,0,.18.06h0C145.78,87.11,145.92,87.13,146,87Zm-21.42-6.06q-0.36-.36.12-0.48a0.7,0.7,0,0,1,.48.12,1,1,0,0,1,.36,1.2,1.81,1.81,0,0,1-1-.84h0Zm22-20.16c0.32,0,.36.12,0.12,0.36,0,0.24-.08.28-0.24,0.12L146.34,61h0ZM126.06,83.71c-0.32,0-.4-0.12-0.24-0.36l0.12-.12a1.79,1.79,0,0,0,.48.36,0.49,0.49,0,0,1-.36.12h0Zm20.4-25.32a0.21,0.21,0,0,1-.24.24c-0.24,0-.36-0.08-0.36-0.24S146,58,146.34,58c0.08,0,.12.12,0.12,0.36h0Zm-0.84,36.48a0.15,0.15,0,0,1-.24,0V94.75c0-.08,0-0.08.12,0a0.11,0.11,0,0,1,.12.12h0Z" style="fill:#47372d"/><path d="M172.32,20.11q0.3,0.48.54,1a12.78,12.78,0,0,1,2.28,6.72,16.72,16.72,0,0,1,.12,2v2q0,4.2-.06,8.4T175,48.67v1a0.4,0.4,0,0,1-.18.36,0.32,0.32,0,0,1-.42-0.12l-2.16-1.8a9,9,0,0,0-7.44-2.64,27.64,27.64,0,0,0-4.44,1.08,2.94,2.94,0,0,1-.72.36,1.52,1.52,0,0,0-.6.36q-1,1.32-1.86,2.52a6.16,6.16,0,0,0-1.14,2.88,28.16,28.16,0,0,0-.36,6.84q0.12,8.64,0,17.28-0.12,2.52-.06,5t0.06,5a8.92,8.92,0,0,0,3.12,6.72l0.9,0.9a11.72,11.72,0,0,0,1,.9,5.93,5.93,0,0,0,4.2,1.56c0.56,0,1.08,0,1.56-.06s1-.1,1.56-0.18a9.82,9.82,0,0,0,4.2-1.32q1.32-1,1.68-.78a3.31,3.31,0,0,1,.72,1.86,0.78,0.78,0,0,0,.72.6q2,0.24,3.9.36a32.22,32.22,0,0,0,3.9,0,8.93,8.93,0,0,0,1.08-.06,2.89,2.89,0,0,0,1.08-.42,5.77,5.77,0,0,0-.66-1.5,15.28,15.28,0,0,0-.9-1.26,8.2,8.2,0,0,1-1-1.74,7.51,7.51,0,0,1-.48-2q-0.12-1-.24-1.86c-0.08-.6-0.16-1.22-0.24-1.86q-0.24-2.52-.42-5.1a32.41,32.41,0,0,1,.06-5.22q0.24-1.68.36-3.48T182,69.43q-0.12-4-.18-7.86t0.06-7.86V53.35a26.56,26.56,0,0,1-.24-3.54q0-1.74.12-3.54t0.06-3.42q0.06-1.74.18-3.42a87.87,87.87,0,0,0-.06-9.72q-0.3-4.8-.3-9.72a1.28,1.28,0,0,0-1.2-1.32h-6.48a6.8,6.8,0,0,0-2.16.36A6.59,6.59,0,0,0,172.32,20.11Zm5.1,14.4,0.12-.24-0.12-.12-0.36.36-0.24-.24,0.12-.12h0.48q-0.24.12,0,.36h0ZM175.32,77Q175.14,80,175,83a16.42,16.42,0,0,1-1,4.44,3.52,3.52,0,0,1-.55,1c-0.2.24-.43,0.48-0.67,0.72l-0.73.48-0.73.48a3.49,3.49,0,0,0-1.21,1.32,2.15,2.15,0,0,1-1.39,1.32,13.78,13.78,0,0,1-1.88.36A3.15,3.15,0,0,1,164,91.39a7.86,7.86,0,0,1-1.21-5,21.06,21.06,0,0,1,.12-2.22q0.12-1.14.36-2.34,0.12-2.4,0-4.92a14.87,14.87,0,0,1-.12-1.86V67.57q0-2.82-.12-5.58a35.5,35.5,0,0,1-.06-3.6,19.67,19.67,0,0,1,.42-3.48q0.24-1,.55-1.86a8.74,8.74,0,0,1,.91-1.86,5.41,5.41,0,0,1,2.91-2.4,1.91,1.91,0,0,1,1.46.12,18.71,18.71,0,0,1,4,4.32,3.42,3.42,0,0,1,.36,1.56c0.08,0.4.16,0.78,0.24,1.14a1.51,1.51,0,0,0,.61.9,0.75,0.75,0,0,1,.24.54,1.18,1.18,0,0,0,.12.54,3.62,3.62,0,0,0,.06.6,3.85,3.85,0,0,1,.06.6q0.12,3.12.24,6.06t0.24,5.94A59.08,59.08,0,0,1,175.32,77Zm-18.24,1.32a1.22,1.22,0,0,1,.54-0.06q1,0,1,.72t-1.08.72Q157,79.75,157,79A1.69,1.69,0,0,1,157.08,78.37Zm2.1-.9a0.35,0.35,0,0,1,.12-0.24,0.65,0.65,0,0,0,.18-0.6q-0.06-.36.54-0.48t0.6,0.36a1.16,1.16,0,0,1-.18.78,1.86,1.86,0,0,1-.9.3c-0.08.08-.2,0-0.36-0.12h0Zm18.12-32a0.74,0.74,0,0,0,.54.24c0.2,0,.22.12,0.06,0.36a1.14,1.14,0,0,1-1,.24c-0.24,0-.36-0.08-0.36-0.24V44.59a5.67,5.67,0,0,0,.72.84h0ZM160.74,72.31a0.19,0.19,0,0,0,.18-0.12,0.19,0.19,0,0,1,.18-0.12c0.48-.32.72-0.24,0.72,0.24a1.17,1.17,0,0,1-.24.84,1.42,1.42,0,0,1-.84-0.84h0Zm0,15.36a0.66,0.66,0,0,1-.66-0.12,2.16,2.16,0,0,0-.66-0.36l0.12-.24V86.83a0.91,0.91,0,0,1,.84.18,1.88,1.88,0,0,1,.48.54h0a0.11,0.11,0,0,1-.12.12h0Zm16.44-67.2q0,0.36-.18.36h-0.42a0.48,0.48,0,0,1-.48-0.24,0.48,0.48,0,0,1,.6-0.48c0.4,0,.56.12,0.48,0.36h0ZM160.74,80.35a0.29,0.29,0,0,0,.36,0c0.16-.16.24-0.2,0.24-0.12a0.24,0.24,0,0,1-.06.18,0.24,0.24,0,0,0-.06.18,0.63,0.63,0,0,1-.84-0.12A0.24,0.24,0,0,1,160.74,80.35Zm0.48-2.16a0.11,0.11,0,0,1-.12-0.12,0.11,0.11,0,0,0-.12-0.12,2.77,2.77,0,0,0,.6-0.36v0.12a0.34,0.34,0,0,0,.12.24c0,0.16-.16.24-0.48,0.24h0Zm2.52-29.64a0.11,0.11,0,0,1,.12.12,0.32,0.32,0,0,1-.36.36l-0.36-.36c-0.16-.16,0-0.24.36-0.24h0c0,0.08.08,0.12,0.24,0.12h0ZM175,20.35c0.08,0.24,0,.36-0.24.36a0.41,0.41,0,0,1-.36-0.36,0.21,0.21,0,0,1,.24-0.24c0.24,0,.36.08,0.36,0.24h0Zm3.84,2.4c-0.08.08-.2,0-0.36-0.12l0.12-.12V22.39a0.25,0.25,0,0,1,.18.06,0.24,0.24,0,0,0,.18.06h0a0.35,0.35,0,0,1-.12.24h0ZM177.3,57.43h0.12c0.16,0.16.12,0.24-.12,0.24h-0.36a0.33,0.33,0,0,0,.12-0.18,0.34,0.34,0,0,1,.12-0.18,0.11,0.11,0,0,0,.12.12h0Zm-3.84,33a0.35,0.35,0,0,1,.24.12,0.11,0.11,0,0,0-.12.12l-0.12-.12V90.43Z" style="fill:#47372d"/><path d="M209.28,68.53a20.33,20.33,0,0,0,4.14-.3,1.82,1.82,0,0,0,1-.48,0.82,0.82,0,0,0,.12-1,15,15,0,0,1-.36-2,15.68,15.68,0,0,0-.36-2,33.32,33.32,0,0,1-.78-3.36q-0.3-1.68-.66-3.36c-0.16-.48-0.3-1-0.42-1.44a4.84,4.84,0,0,0-.54-1.32,31.24,31.24,0,0,0-1.56-2.76,29.12,29.12,0,0,0-1.8-2.52,7.34,7.34,0,0,0-5-2.52,11.7,11.7,0,0,0-6.36,1.68A6.25,6.25,0,0,0,195,48.55q-0.66.84-1.38,1.68a10.21,10.21,0,0,0-2.28,4.08q-0.36,1.32-.72,2.46a20.12,20.12,0,0,0-.6,2.46,13.73,13.73,0,0,0-.36,1.56,9.45,9.45,0,0,0-.12,1.56q-0.24,2.16-.3,4.26t-0.3,4.26a12.81,12.81,0,0,0-.06,2.16q0.06,1.08.18,2,0.24,1.8.54,3.54T190.14,82a21.9,21.9,0,0,0,2.82,7.8,31.58,31.58,0,0,0,5.22,6.48,2.9,2.9,0,0,0,2.88.72,24.64,24.64,0,0,0,3.78-1.44A11.63,11.63,0,0,0,208,93.31a16.82,16.82,0,0,0,3.6-5.4q0.48-1.08.84-2.16t0.84-2.28q0.24-.72.54-1.44a14.66,14.66,0,0,0,.54-1.56q0.6-1.92-1.44-2.16a11.62,11.62,0,0,0-2.34,0,20,20,0,0,0-2.22.36,0.88,0.88,0,0,0-.72.84,12,12,0,0,1-.12,1.68,18.15,18.15,0,0,1-.36,1.8q-0.24,1-.42,1.8a8.59,8.59,0,0,0-.18,1.8,12.18,12.18,0,0,1-.9,3.18,15.17,15.17,0,0,1-1.62,2.82,1.57,1.57,0,0,1-1.8.72,7.83,7.83,0,0,1-2.82-1.14,4.81,4.81,0,0,1-1.74-2.46,29.46,29.46,0,0,1-1.56-7.2q-0.36-4.8-.36-9.6A10.23,10.23,0,0,1,196,71a3.51,3.51,0,0,1,1.14-2.1,2.53,2.53,0,0,1,2.22-.54,11.1,11.1,0,0,0,2.82.12,14.11,14.11,0,0,1,2.58,0Q207.18,68.47,209.28,68.53Zm-10.86-3.78a2.16,2.16,0,0,1-2.28-2.28,19.84,19.84,0,0,1-.06-2.7,7.21,7.21,0,0,1,.66-2.7,7.22,7.22,0,0,0,.48-2.88,7.36,7.36,0,0,1,2.64-5.28,3,3,0,0,1,2.22-.78,3.29,3.29,0,0,1,2.22,1,9.72,9.72,0,0,1,1.38,2,9,9,0,0,1,.78,2.4l0.48,1.92q0.24,1,.48,2t0.18,2.22q0.06,1.14.06,2.34a2.31,2.31,0,0,1-2.16,2.52,7.12,7.12,0,0,1-1.56.12h-5.52Zm-7.2,4.8a0.48,0.48,0,0,0,.36.12c0.48,0.24.64,0.52,0.48,0.84a0.78,0.78,0,0,1-1,.6,0.77,0.77,0,0,1-.72-0.84,0.64,0.64,0,0,1,.84-0.72h0ZM196.74,50a0.81,0.81,0,0,0-.36.72c0,0.08-.06.12-0.18,0.12a0.4,0.4,0,0,1-.3-0.12,0.49,0.49,0,0,1-.24-0.6,1.1,1.1,0,0,1,.6-0.6c0.24-.08.56-0.2,1-0.36A1.24,1.24,0,0,1,196.74,50Zm-2.28,7.08,0.36,0.36c0,0.16,0,.24-0.12.24h-0.24a0.7,0.7,0,0,0-.24-0.48,0.35,0.35,0,0,0,.24-0.12h0Zm16.2,4q-0.36.24-.36-0.24-0.36-.36.12-0.36a0.71,0.71,0,0,1,.36.36,0.35,0.35,0,0,1-.12.24h0Zm1.2,21.48c0,0.32-.12.4-0.36,0.24-0.08,0-.12-0.08-0.12-0.24a0.33,0.33,0,0,1,.18-0.12,0.34,0.34,0,0,0,.18-0.12,0.34,0.34,0,0,0,.12.24h0Zm-3.36,4.32q-0.36.36-.36-0.12a0.69,0.69,0,0,1,.24-0.48,0.49,0.49,0,0,1,.48.24h0Z" style="fill:#47372d"/><path d="M95.46,194.35a11.67,11.67,0,0,1,.12,1.62,11.35,11.35,0,0,0,.12,1.62A19.36,19.36,0,0,1,95,205a17.71,17.71,0,0,0-.72,3.84q-0.12.84-.18,1.62a8.35,8.35,0,0,1-.3,1.62,10.64,10.64,0,0,1-1,3.36Q92,217,91,218.59q-1.08,1.32-2.16,2.76t-2,2.76A15.83,15.83,0,0,1,83.58,227a21.71,21.71,0,0,1-7,3.18,25.34,25.34,0,0,1-7.62.66,7.81,7.81,0,0,1-1.38-.12,10.24,10.24,0,0,1-1.38-.36,17.78,17.78,0,0,1-4.8-1.92,40.81,40.81,0,0,1-4.32-2.88,10.05,10.05,0,0,1-2.4-2.52q-1.32-1.92-2.58-3.78a16.37,16.37,0,0,1-2-4,7.27,7.27,0,0,0-.84-1.92,18,18,0,0,1-1.92-11.64q0.36-2,.66-3.9t0.54-3.9a33.17,33.17,0,0,1,1.2-6.12,22.65,22.65,0,0,1,8.16-10.92,6,6,0,0,0,1.56-1.68,0.81,0.81,0,0,0,.12-1.2q-0.24-1-.72-0.24t-1.14,1.2a4.2,4.2,0,0,1-1.26,1,17.16,17.16,0,0,0-2.64,1.62l-2.52,1.86a18.47,18.47,0,0,0-4.2,4.08,16.66,16.66,0,0,0-2.1,2.88q-0.9,1.56-1.74,3.12a3.59,3.59,0,0,0-.6,1.92,11.33,11.33,0,0,1-1,3.84q-0.6,1.68-1,3a21,21,0,0,0,0,10,68,68,0,0,0,2.16,7q0.6,1.32,1.26,2.64a10.92,10.92,0,0,0,1.62,2.4l2.22,2.7,2.22,2.7a12.61,12.61,0,0,0,1.14,1,4.06,4.06,0,0,0,1.38.66,0.74,0.74,0,0,1,.42.12,4.13,4.13,0,0,0,.42.24,22.3,22.3,0,0,0,3.72,2.22l4,1.86a24.43,24.43,0,0,0,6.06,1.8,20.87,20.87,0,0,0,6.3,0q2.28-.36,4.5-0.84a22.54,22.54,0,0,0,4.38-1.44q2.28-1.08,4.5-2.4T91.26,226a5.35,5.35,0,0,0,1-.78l0.9-.9a28.72,28.72,0,0,0,4.62-6,36.45,36.45,0,0,0,3.06-7,4.48,4.48,0,0,0,.3-1.14q0.06-.54.18-1.14,0.24-3.6.54-7.14a61.14,61.14,0,0,0,.18-7.14,23.51,23.51,0,0,1-.06-2.94,23.26,23.26,0,0,1,.3-2.94,10.22,10.22,0,0,0,0-3.12q-0.12-.6-0.18-1.08a8.49,8.49,0,0,1-.06-1.08q-0.12-2.16-.18-4.32t0.06-4.44a16.38,16.38,0,0,0-3.08-10.68Q98,163,97.2,161.89t-1.66-2.34a24.06,24.06,0,0,0-7.16-6.24,5.17,5.17,0,0,1-1.08-.6c-0.48-.32-0.52-0.64-0.12-1a12.49,12.49,0,0,0,2.52-2.88,16.08,16.08,0,0,0,2.52-9.6,11.43,11.43,0,0,0-3.14-7.44,4,4,0,0,1-1.33-2.88,17.09,17.09,0,0,0-.12-3.48l-0.48-3.6a13.79,13.79,0,0,0-4-7.8A25.68,25.68,0,0,0,73,107.71a12.34,12.34,0,0,0-15,6.12,8.17,8.17,0,0,0-.24,7.68,13.06,13.06,0,0,0,1.08,2q0.6,0.9,1.32,1.86a10.69,10.69,0,0,0,5,3.84,10.48,10.48,0,0,1,1.14.54,9.65,9.65,0,0,0,1.14.54,2,2,0,0,1,1.2.84,7.37,7.37,0,0,1,.66,1.92,4,4,0,0,1-.18,2q-0.36,2-2.4,1.44-0.6-.24-1.56-0.72-5.16-3.24-10.38-6.3t-10.26-6.42a14,14,0,0,0-4.2-2.16q-3-1-5.88-1.8a29.62,29.62,0,0,0-6-1.08,40.76,40.76,0,0,0-13,.84,15.93,15.93,0,0,0-4.8,1.92,37,37,0,0,0-4.2,3,16.26,16.26,0,0,0-2.76,3.36,14.78,14.78,0,0,0-1,1.92,5.43,5.43,0,0,1-1.14,1.68,0.66,0.66,0,0,0-.24.42,1,1,0,0,1-.12.42,35.74,35.74,0,0,0-1.08,4.68,15.3,15.3,0,0,0,0,4.68,20.36,20.36,0,0,0,10.08,15,22,22,0,0,0,13.08,2.76,10,10,0,0,0,4.44-1.44,17.73,17.73,0,0,1,1.86-1,17.22,17.22,0,0,0,1.86-1,7,7,0,0,0,1-.84q0.84-1.32,1.56-2.58a24.42,24.42,0,0,0,1.32-2.7q2.76-8.4-2.64-14.64a15.87,15.87,0,0,0-8.52-5.4,22.52,22.52,0,0,0-4.5-.72,15.6,15.6,0,0,0-4.62.48,14.2,14.2,0,0,0-5.52,3,21.14,21.14,0,0,0-4,4.8,2.76,2.76,0,0,0-.48,1.56,0.58,0.58,0,0,0,.72.36A4.31,4.31,0,0,0,6.66,138q0.36-.3.72-0.54a9.28,9.28,0,0,1,2-1.56q1.08-.6,2.28-1.2a6.75,6.75,0,0,1,4.44-.6,30.42,30.42,0,0,1,4.8,1.32,14.93,14.93,0,0,1,4.32,2.52,32.48,32.48,0,0,1,4.68,4.68,8.64,8.64,0,0,1,1.5,2.34,19.73,19.73,0,0,1,.9,2.58,3.76,3.76,0,0,1-.84,3.36,4.84,4.84,0,0,1-.6.72,4.74,4.74,0,0,0-.6.72,5.26,5.26,0,0,1-2.4,2.16,13.58,13.58,0,0,1-9.72,1.56,23,23,0,0,1-11.52-5.64,3.3,3.3,0,0,1-1-1.32l-1.2-2.64-1.2-2.64a10.45,10.45,0,0,1-.72-2.4,34.45,34.45,0,0,1,0-4.08,12.58,12.58,0,0,1,1-4.08,6.71,6.71,0,0,1,.66-1.56,5,5,0,0,1,1.14-1.32l1.08-1.44a9.29,9.29,0,0,1,3-2.88,18.64,18.64,0,0,1,2.76-1.44q1.56-.6,3.06-1.14t3.06-1.14a3.35,3.35,0,0,1,1.44-.24q2.4,0,4.62.06a25.36,25.36,0,0,1,4.5.54q0.6,0.12,1,.24a5.43,5.43,0,0,1,.9.36,16.92,16.92,0,0,1,1.68.84q3.84,1.68,7.56,3.66t7.32,4.14l3.06,1.86q1.5,0.9,3.18,1.86Q55.86,137,58,138.31t4.32,2.76a13,13,0,0,0,1.8,1.08,9.26,9.26,0,0,0,1.92.72l1.08,0.36a2.79,2.79,0,0,1,2,2.52,2.66,2.66,0,0,0,.06.54,2.84,2.84,0,0,1,.06.54,34.36,34.36,0,0,0,.3,4.62,13.21,13.21,0,0,1-.18,4.5v12.12a5.51,5.51,0,0,0,.12,1.08,10.45,10.45,0,0,1,.06,1.92q-0.06,1-.18,1.92a11,11,0,0,0,0,4,16,16,0,0,1-.12,5.16,6.34,6.34,0,0,0,0,3,14.85,14.85,0,0,1,.12,1.8v1.68q0,2.88-.06,5.76t-0.18,5.76q-0.12,3.36,0,6.72t0.48,6.6a19.47,19.47,0,0,1-1,8.16,14.39,14.39,0,0,1-.78,1.74,4.14,4.14,0,0,1-1.26,1.38,1.41,1.41,0,0,0-.72.84,0.47,0.47,0,0,0-.06.6,0.91,0.91,0,0,0,.54.48,0.24,0.24,0,0,1,.18.06,0.25,0.25,0,0,0,.18.06,27,27,0,0,1,4-.18q2,0.06,4-.06h0.6q1.2,0,.84-1.2a24.26,24.26,0,0,1-.48-3.24q-0.12-1.56-.12-3.24,0-.84-0.06-1.68a4.76,4.76,0,0,1,.18-1.68,13.63,13.63,0,0,0,.12-4.08q-0.24-2.52-.3-5a23.71,23.71,0,0,1,.42-5,0.83,0.83,0,0,0,.06-0.54,2.67,2.67,0,0,1-.06-0.54v-11a8.89,8.89,0,0,0-.12-1.44q-0.24-1.92-.3-3.78t0.06-3.9v-4.26a38.72,38.72,0,0,0-.24-4.26,23.51,23.51,0,0,1-.06-2.94,23.26,23.26,0,0,1,.3-2.94,20.39,20.39,0,0,0,.3-2.76A23.45,23.45,0,0,0,75.9,160v-2.52a5.57,5.57,0,0,1,1.2-2.88,2.8,2.8,0,0,1,2-.72,24.78,24.78,0,0,1,3.48.72,8.52,8.52,0,0,1,3.12,1.68,32.55,32.55,0,0,1,4.56,4.5,22.35,22.35,0,0,1,3.36,5.58,26.11,26.11,0,0,1,1.8,6.42,31,31,0,0,1,.24,6.66q-0.12,1.32-.18,2.46a19.88,19.88,0,0,1-.3,2.46,2.48,2.48,0,0,0,.24,1.92,1.09,1.09,0,0,1,.18.78,6.21,6.21,0,0,0-.06.9v6.36H95.46Zm-21.12-55.2,0.12,0.12v0.24c-0.24-.08-0.38,0-0.42.12a0.77,0.77,0,0,1-.18.36H73.62v-0.12a0.49,0.49,0,0,1,.12-0.36,0.41,0.41,0,0,1,.36.18c0.08,0.12.2,0.1,0.36-.06a0.39,0.39,0,0,1-.12-0.48h0ZM71.28,109a1.12,1.12,0,0,1,.3.12v0.24a0.11,0.11,0,0,1-.12.12c-0.4,0-.56-0.16-0.48-0.48H70.86l0.12-.12A1,1,0,0,0,71.28,109Zm14,18.36a8.91,8.91,0,0,1,.06,1.08c0,0.24-.16.36-0.48,0.36a1.81,1.81,0,0,1-.72-0.24,7.45,7.45,0,0,0-2.28-.6,12.23,12.23,0,0,0-2.4,0h-2a19.84,19.84,0,0,0-2.16.12H74.82a15.3,15.3,0,0,1-5.58-.3A33.17,33.17,0,0,1,64,126.07a6.56,6.56,0,0,1-3.72-3.6,7.58,7.58,0,0,1-.48-5.28,5.72,5.72,0,0,1,3.36-3.72,6.72,6.72,0,0,1,2.28-.78q1.2-.18,2.4-0.3h1.68a12.21,12.21,0,0,1,8,2.28q1.32,1,2.46,1.74a15.77,15.77,0,0,1,2.22,1.86,15.71,15.71,0,0,1,2.16,3.3,8.88,8.88,0,0,1,.84,3.9v1h0A7.47,7.47,0,0,0,85.32,127.39ZM83.7,148.51a4,4,0,0,1-2.94,1.92,4.12,4.12,0,0,1-3.3-1,2.51,2.51,0,0,1-1.08-2,5.87,5.87,0,0,1,2.76-6,23,23,0,0,0,2.1-1.32,24.54,24.54,0,0,0,2-1.56,1.4,1.4,0,0,1,1.38-.42,1.38,1.38,0,0,1,1,1.14,2.54,2.54,0,0,1,.18,1.2,13,13,0,0,0-.06,1.32,11.68,11.68,0,0,1-2,6.72h0Zm-6.24-17a3.45,3.45,0,0,1,3.6-.6q2.76,0.84,1.8,3.72a5.22,5.22,0,0,1-2.28,2.58,5,5,0,0,1-3.36.78,1.39,1.39,0,0,1-1.32-1.08,3.49,3.49,0,0,1-.12-0.84,2.3,2.3,0,0,0-.12-0.72,5.47,5.47,0,0,1,1.8-3.84h0Zm-18,4.08c0.24-.16.4-0.12,0.48,0.12a1,1,0,0,0,.6.36,1.52,1.52,0,0,1,.78.24,1.31,1.31,0,0,1-.3.72,0.35,0.35,0,0,0-.12.24,0.35,0.35,0,0,1-.12.24c-0.16.16-.28,0.2-0.36,0.12a3.46,3.46,0,0,0-1-.72l-1.14-.48a1.12,1.12,0,0,1-.36-0.48,0.55,0.55,0,0,1,.6-0.36h0.36a0.43,0.43,0,0,0,.6,0h0Zm30.36,4.56a0.65,0.65,0,0,1,.6.84,0.74,0.74,0,0,1-.84.6,1.36,1.36,0,0,0-.6-0.12,1.32,1.32,0,0,1-.6-0.12,1,1,0,0,1-1-1.2q0-.6.48-0.36a2,2,0,0,0,.84.12,3.83,3.83,0,0,1,1.08.24h0ZM73,130.81a0.34,0.34,0,0,1,.12-0.18,2,2,0,0,1,1.2-.54,1.75,1.75,0,0,1,.84,1,0.49,0.49,0,0,1-.12.36l-0.24.12a1.15,1.15,0,0,0-.84-0.36A2.92,2.92,0,0,1,72.9,131,0.34,0.34,0,0,0,73,130.81Zm24.84,39.9,0.42-.42a0.41,0.41,0,0,1,.54.06,0.34,0.34,0,0,0,.24.12,1,1,0,0,1,.36.12c0.48,0,.64.16,0.48,0.48q-0.24.84-.84,0.6l-0.66-.24a3.51,3.51,0,0,1-.66-0.36,0.49,0.49,0,0,0,.12-0.36h0ZM71,192.07a0.48,0.48,0,0,1,.24-0.48c0.32,0,.4.16,0.24,0.48a0.7,0.7,0,0,1-.12.48c-0.16.24-.18,0.4-0.06,0.48a3.07,3.07,0,0,1,.42.36c0.24,0.24.32,0.4,0.24,0.48a0.69,0.69,0,0,1-.48.24,0.42,0.42,0,0,1-.48-0.48,1.06,1.06,0,0,1,.12-0.48,0.4,0.4,0,0,0-.12-0.48v-0.6Zm1.8,4.68-0.24-.24a0.86,0.86,0,0,1,.84-1.08c0.32-.16.48-0.08,0.48,0.24a1.27,1.27,0,0,1-1.08,1.08h0ZM73,209.89a2.29,2.29,0,0,1-.6-0.42,0.67,0.67,0,0,1-.24-0.36c0-.16.2-0.24,0.6-0.24a0.49,0.49,0,0,1,.36.12,2.3,2.3,0,0,1,.66.18,1.72,1.72,0,0,1,.06.66,1.09,1.09,0,0,1-.12.48A6.5,6.5,0,0,0,73,209.89Zm26-19.26a0.38,0.38,0,0,1-.36-0.24,0.29,0.29,0,0,1,0-.36,0.55,0.55,0,0,1,.6-0.36c0.32,0.16.4,0.36,0.24,0.6a0.33,0.33,0,0,1-.48.36h0Zm-1-22.5a0.52,0.52,0,0,0,.24-0.42,0.21,0.21,0,0,1,.24-0.24l0.12,0.24a0.25,0.25,0,0,1-.06.18,0.24,0.24,0,0,0-.06.18,0.74,0.74,0,0,0,.42.36c0.2,0.08.18,0.24-.06,0.48a0.85,0.85,0,0,1-.72-0.24,1.05,1.05,0,0,1-.48-0.12A1.17,1.17,0,0,1,98.1,168.13Zm-24.72-3.72a0.63,0.63,0,0,1-.24-0.3,0.83,0.83,0,0,1,.3-0.54,0.47,0.47,0,0,1,.54-0.18,0.62,0.62,0,0,1,.24.6,0.75,0.75,0,0,1-.6.6A1,1,0,0,0,73.38,164.41ZM71.7,135.55a0.32,0.32,0,0,1-.12-0.18,0.35,0.35,0,0,0-.12-0.18l0.24-.24h0.36a0.7,0.7,0,0,1,.48.12,0.12,0.12,0,0,1,0,.24c-0.16.32-.32,0.44-0.48,0.36h0a0.48,0.48,0,0,1-.36-0.12h0ZM98.58,185q0-.36.36,0,0.72,0.72-.24,1.2a0.48,0.48,0,0,1-.36-0.12v-0.48a2.08,2.08,0,0,1,.24-0.6h0Zm-25.2,14.58c0,0.12-.08.18-0.24,0.18a0.32,0.32,0,0,1-.36-0.36,1.67,1.67,0,0,1,.12-0.72l0.24-.24a0.68,0.68,0,0,1,.36.24v0.6h0A0.41,0.41,0,0,0,73.38,199.57Zm1.92-59.7c-0.4,0-.48-0.12-0.24-0.36,0.08-.24.24-0.24,0.48,0,0.08,0,.12,0,0.12.06s0,0.06.12,0.06a0.48,0.48,0,0,1-.48.24h0Zm-3.6,76.8c-0.16,0-.24-0.12-0.24-0.36q-0.24-.36.36-0.36a0.42,0.42,0,0,1,.48.48,0.62,0.62,0,0,1-.6.24h0Zm26-12.6c-0.16,0-.24,0-0.24-0.12a0.3,0.3,0,0,1,0-.48v-0.24a0.25,0.25,0,0,0-.18.06s0,0.06.18,0.06a0.11,0.11,0,0,0,.12.12,0.69,0.69,0,0,1,.24.48ZM74,133.51a0.76,0.76,0,0,1-.6-0.48c0-.16.12-0.24,0.36-0.24s0.48,0.12.48,0.36-0.08.36-.24,0.36h0Zm-2,43c0,0.16,0,.24-0.12.24a0.35,0.35,0,0,0-.24.12,0.55,0.55,0,0,1-.6-0.36c0-.24.08-0.36,0.24-0.36a0.81,0.81,0,0,1,.72.36h0ZM46.2,216.13a0.33,0.33,0,0,1-.06-0.42l0.24-.12c0.4-.16.6,0,0.6,0.48,0,0.16-.12.24-0.36,0.24h0A0.57,0.57,0,0,1,46.2,216.13Zm27.42-14.7c0-.08.08-0.12,0.24-0.12s0.16,0.08,0,.24c0,0.08-.08.12-0.24,0.12h0v-0.24ZM17,120.49a0.24,0.24,0,0,0,.18.06l-0.24.24-0.24-.12,0.12-.24h0A0.25,0.25,0,0,1,17,120.49Zm29,73.38c0,0.08,0,.1-0.12.06a0.19,0.19,0,0,1-.12-0.18,0.42,0.42,0,0,1,.48-0.48,0.25,0.25,0,0,1,.18.06,0.24,0.24,0,0,0,.18.06,0.7,0.7,0,0,1-.6.48h0Zm52.2-.84a0.47,0.47,0,0,1-.48-0.36c-0.08,0,0-.08.12-0.24a0.49,0.49,0,0,1,.48.24,0.49,0.49,0,0,1-.12.36h0Zm-8.76-49-0.12-.12v-0.12a0.11,0.11,0,0,1,.12.12h0v0.12Zm9.84,32.16-0.36-.36c0-.08.08-0.12,0.24-0.12s0.24,0.12.24,0.36ZM75.54,142.39a0.32,0.32,0,0,1-.12-0.18A0.35,0.35,0,0,0,75.3,142c0-.16,0-0.24.12-0.24a0.71,0.71,0,0,1,.36.36,0.21,0.21,0,0,0-.24.24h0Z" style="fill:#47372d"/><path d="M108.72,153l0.54,0.54a31,31,0,0,1,2,3.24,7.77,7.77,0,0,1,.72,4.68,19.85,19.85,0,0,0-.3,2.76,20.58,20.58,0,0,0,.06,2.76v25.92a23.54,23.54,0,0,0,.24,3.36,3.91,3.91,0,0,1-.84,3.12l-1.8,2.88a1.83,1.83,0,0,0-.24.72c-0.16.4-.08,0.6,0.24,0.6h0.84a15.88,15.88,0,0,1,3.36-.12q1.68,0.12,3.36.36a16.2,16.2,0,0,0,2,.12h2a2,2,0,0,0,.84-0.24q0.84-.24.36-0.84a1,1,0,0,0-.36-0.72,4.94,4.94,0,0,1-1.38-1.5q-0.54-.9-1.14-1.86a5.25,5.25,0,0,1-.72-2.76q0.12-.84.18-1.62a7.53,7.53,0,0,0-.06-1.62,14.27,14.27,0,0,1-.12-4.2q0.12-4.44.24-8.88t0.36-8.88q0.12-2,.24-4.08t0.36-4.08a4.39,4.39,0,0,1,1.2-2.76,8.33,8.33,0,0,1,1.68-1.86q1-.78,2-1.5a1.32,1.32,0,0,1,1.68,0,4.16,4.16,0,0,1,2.16,1.92q0.36,0.84.72,1.62a11.46,11.46,0,0,1,.6,1.62,28.06,28.06,0,0,1,1,5.1q0.24,2.58.24,5.22a3.81,3.81,0,0,1-.48,1.92q-0.6,1.2-1.14,2.22a10.43,10.43,0,0,1-1.38,2,3.62,3.62,0,0,0-1,2.16,0.42,0.42,0,0,0,.48.48,6,6,0,0,1,.66-0.18,3.41,3.41,0,0,1,.66-0.06,7.17,7.17,0,0,0,3.84-1.8,21.05,21.05,0,0,0,2.94-3.36,11,11,0,0,0,1.74-4.2q0.24-1,.36-1.32a7.38,7.38,0,0,0,.66-2.76q0.06-1.44.06-2.76a14.54,14.54,0,0,0-1.2-4.74,16.67,16.67,0,0,0-2.64-4,8.58,8.58,0,0,0-2.1-1.74,15.65,15.65,0,0,0-2.46-1.14,2.79,2.79,0,0,0-1.56-.24q-2,.36-3.9.84a9.6,9.6,0,0,0-3.54,1.8q-1.2,1-1.56-.72v-0.6a1.19,1.19,0,0,0-1.2-1.08l-4-.48a32.06,32.06,0,0,0-4-.24h-1a1.48,1.48,0,0,0-.84.24A0.76,0.76,0,0,0,108.72,153Zm6.18,8.58h-0.48v-0.36A0.61,0.61,0,0,1,115,161a2.72,2.72,0,0,1-.36-2.28,0.32,0.32,0,0,1,.36-0.36c0.32,0,.48,0,0.48.12a4.55,4.55,0,0,1,.3,1.26,1.73,1.73,0,0,1-.42,1.26c-0.08.16-.14,0.2-0.18,0.12A0.2,0.2,0,0,0,115,161h0q0.48,0.36-.12.6h0Zm-1.68,32.28a0.42,0.42,0,0,1,.48-0.48,0.3,0.3,0,0,1,.36,0q0.36,0.12.12,0.6a0.21,0.21,0,0,1-.24.24q-0.6.48-.12,0.84a0.71,0.71,0,0,1,.48.6,3.58,3.58,0,0,1-.12.84c0,0.24-.08.28-0.24,0.12a0.48,0.48,0,0,1-.36-0.12,0.64,0.64,0,0,1-.18-0.6,1,1,0,0,0-.06-0.6,1.86,1.86,0,0,0-.12-1.44h0Zm1.56,3.12a1.93,1.93,0,0,0,.48-0.06,0.69,0.69,0,0,1,.48.06,0.86,0.86,0,0,0,.66-0.36c0.2-.24.42-0.16,0.66,0.24a0.62,0.62,0,0,1-.66.42,0.74,0.74,0,0,0-.66.18,0.69,0.69,0,0,1-.48.24,0.57,0.57,0,0,1-.6-0.48c0-.16,0-0.24.12-0.24h0Zm0.72-40.32a0.7,0.7,0,0,1,.24.48,0.3,0.3,0,0,1-.48,0,3.81,3.81,0,0,0-.66-0.36l-0.66-.24a0.48,0.48,0,0,1-.12-0.36,0.21,0.21,0,0,0,.24-0.24,2.43,2.43,0,0,1,1.44.72h0ZM114.24,173a0.48,0.48,0,0,0-.3-0.06c-0.48-.32-0.6-0.6-0.36-0.84s0.48-.32,1,0l0.36,0.36a0.7,0.7,0,0,1-.12.48c0,0.08-.12.12-0.36,0.12A0.24,0.24,0,0,1,114.24,173Zm21.9-4.5c0.16-.16.24-0.12,0.24,0.12a0.59,0.59,0,0,1-.48.84,0.11,0.11,0,0,0-.12-0.12c-0.16,0-.24,0-0.24-0.12a0.79,0.79,0,0,1,.6-0.72h0Zm-19.68,9.6c0-.08.08-0.12,0.24-0.12s0.12,0,.12.06,0,0.06.12,0.06a0.81,0.81,0,0,0,.06.36,0.85,0.85,0,0,1,.06.36l-0.36.36c-0.16.08-.24,0-0.24-0.36v-0.36h0v-0.36Zm-0.24,4.32a0.24,0.24,0,0,1-.18-0.06s0-.06.06-0.06c0-.16,0-0.24.12-0.24a0.55,0.55,0,0,1,.6-0.12,0.21,0.21,0,0,1,.24.24c0.16,0.16.12,0.24-.12,0.24h-0.72Zm0.48-22.32a0.68,0.68,0,0,1-.48-0.48h0.12c0.08,0,.12,0,0.12-0.06s0-.06.12-0.06c0.24,0,.36.16,0.36,0.48a0.35,0.35,0,0,0-.24.12h0Zm-3.12,6.24q-0.36,0-.36-0.18v-0.42q-0.24-.36.24-0.36a0.75,0.75,0,0,1,.6.6,1.13,1.13,0,0,1-.48.36h0Zm22.68-4.44c-0.16,0-.24,0-0.24-0.12-0.24-.08-0.28-0.28-0.12-0.6H136a0.71,0.71,0,0,1,.36.6,0.11,0.11,0,0,1-.12.12h0Zm-19.92,39.12,0.36,0.36-0.12.12a2.68,2.68,0,0,1-.6-0.36c0-.08.08-0.12,0.24-0.12h0.12Zm-2.52-2.16-0.12.24a0.32,0.32,0,0,1-.12-0.18,0.35,0.35,0,0,0-.12-0.18l0.12-.12a0.21,0.21,0,0,1,.24.24h0Z" style="fill:#47372d"/><path d="M152.22,158.53a42.86,42.86,0,0,1,.12-5.58,1,1,0,0,0-1.2-1.08q-1.68-.12-3.24-0.12h-3.24a8.88,8.88,0,0,0-1.08.06,8.54,8.54,0,0,1-1.08.06,1,1,0,0,1-.42.12,0.35,0.35,0,0,0-.3.24,0.55,0.55,0,0,0,.24.6l0.6,0.6a7.77,7.77,0,0,1,2.52,6.24q0.12,5.28.24,10.5t0.24,10.5q0.12,3.72.12,7.32t-0.24,7.2q-0.12.72-.18,1.5t-0.18,1.62a6.4,6.4,0,0,1-2.16,4.08,2.82,2.82,0,0,0-.36.42,3,3,0,0,1-.36.42c-0.16.32-.12,0.48,0.12,0.48h1.32q1.2,0.12,2.4.12a24,24,0,0,1,2.4.12l1.56,0.24a2.37,2.37,0,0,0,1.56-.36,0.74,0.74,0,0,1,.66-0.18,4.52,4.52,0,0,1,.78.18,3,3,0,0,0,1.68,0c0.4,0,.52-0.2.36-0.6a5.59,5.59,0,0,0-.42-1.38q-0.3-.66-0.54-1.26a19,19,0,0,1-1.2-2.64,10.54,10.54,0,0,1-.6-2.76,63,63,0,0,1-.36-6.72,58.63,58.63,0,0,1,.36-6.48q0.12-1.68.18-3.18a17.67,17.67,0,0,0-.18-3.18,18.29,18.29,0,0,1,0-4.2v-2.16q0-1.32-.06-2.58t-0.06-2.58Q152.34,161.35,152.22,158.53Zm-5.4-4.62q-0.36.36-.36,0l0.36-.36a0.5,0.5,0,0,1,.36.12h0a0.67,0.67,0,0,1-.36.24h0Zm0,47.76c-0.16.16-.24,0.12-0.24-0.12a0.49,0.49,0,0,1,.12-0.36,0.21,0.21,0,0,1,.24.24,0.35,0.35,0,0,0-.12.24h0Zm2.76-41.76a0.6,0.6,0,0,1-.72,0c-0.16,0-.16-0.08,0-0.24a0.82,0.82,0,0,0,.36-0.06,0.38,0.38,0,0,1,.36.18v0.12Zm0.84,3a0.35,0.35,0,0,0-.12-0.24c0.16-.32.24-0.36,0.24-0.12a0.35,0.35,0,0,1,.12.24c0,0.08-.08.12-0.24,0.12h0Zm-3.84-7.68a0.15,0.15,0,0,1,0,.24h-0.12v-0.12Zm3.6,38.4c0,0.08,0,.08-0.12,0v-0.12c0.08,0,.12,0,0.12-0.06s0-.06.12-0.06l0.24,0.24h-0.36Zm2-51.72a1.8,1.8,0,0,0,0-1.8,4.41,4.41,0,0,0-2.4-2.64,2.6,2.6,0,0,0-3.48.24,2.94,2.94,0,0,0-1,1.68,3,3,0,0,0,.24,2,5.28,5.28,0,0,0,1.92,2,4.78,4.78,0,0,0,1.44.48,3.87,3.87,0,0,0,3.24-2h0Zm-4.08,28.8h-0.48v-0.36a0.61,0.61,0,0,1,.6-0.24,2.72,2.72,0,0,1-.36-2.28,0.32,0.32,0,0,1,.36-0.36c0.32,0,.48,0,0.48.12a4.55,4.55,0,0,1,.3,1.26,1.73,1.73,0,0,1-.42,1.26c-0.08.16-.14,0.2-0.18,0.12a0.2,0.2,0,0,0-.18-0.12h0q0.48,0.36-.12.6h0Zm-0.66,11.46a0.48,0.48,0,0,0-.3-0.06c-0.48-.32-0.6-0.6-0.36-0.84s0.48-.32,1,0l0.36,0.36a0.7,0.7,0,0,1-.12.48c0,0.08-.12.12-0.36,0.12A0.24,0.24,0,0,1,147.48,182.17Zm2.22,5.1c0-.08.08-0.12,0.24-0.12s0.12,0,.12.06,0,0.06.12,0.06a0.81,0.81,0,0,0,.06.36,0.85,0.85,0,0,1,.06.36l-0.36.36c-0.16.08-.24,0-0.24-0.36v-0.36h0v-0.36Zm-0.24,4.32a0.24,0.24,0,0,1-.18-0.06s0-.06.06-0.06c0-.16,0-0.24.12-0.24a0.55,0.55,0,0,1,.6-0.12,0.21,0.21,0,0,1,.24.24c0.16,0.16.12,0.24-.12,0.24h-0.72Zm0.48-22.32a0.68,0.68,0,0,1-.48-0.48h0.12c0.08,0,.12,0,0.12-0.06s0-.06.12-0.06c0.24,0,.36.16,0.36,0.48a0.35,0.35,0,0,0-.24.12h0Zm-3.12,6.24q-0.36,0-.36-0.18v-0.42q-0.24-.36.24-0.36a0.75,0.75,0,0,1,.6.6,1.13,1.13,0,0,1-.48.36h0Z" style="fill:#47372d"/><path d="M167.7,161.47a8.33,8.33,0,0,1,.24-2,5.86,5.86,0,0,1,2.16-3.24,2,2,0,0,1,3,.12,2.39,2.39,0,0,1,.6.84,21.5,21.5,0,0,1,1.32,2.28,13.73,13.73,0,0,1,1,2.52,11.58,11.58,0,0,1-.36,7.2,5.66,5.66,0,0,0-.48,3.24,0.7,0.7,0,0,0,.6.48,9.16,9.16,0,0,0,4.74-2.88,8.41,8.41,0,0,0,2.34-5,12,12,0,0,0-1.44-7.2,9.87,9.87,0,0,0-6.84-5.16,13.27,13.27,0,0,0-3.84-.48h-1.08a7.09,7.09,0,0,0-3.72,1.2,11.28,11.28,0,0,0-2.76,2.76,5.43,5.43,0,0,0-.78,1.32q-0.3.72-.54,1.44a15.45,15.45,0,0,0-.72,2.76,9.36,9.36,0,0,0,0,3,13.59,13.59,0,0,0,5.28,8.88,20.17,20.17,0,0,0,4.32,2.88,16,16,0,0,1,3.9,3.12,22.41,22.41,0,0,1,2.94,4.2,7.16,7.16,0,0,1,.84,4.32v2.4a12.48,12.48,0,0,1-1.14,4.8,20.2,20.2,0,0,1-2.7,4.2,3.78,3.78,0,0,1-3.18,1.14,3.62,3.62,0,0,1-2.82-1.62,18.14,18.14,0,0,1-2.7-6.48,26.66,26.66,0,0,1-.42-7v-0.36q0.48-1.56.84-3.12a10.7,10.7,0,0,1,1.2-3,0.35,0.35,0,0,0,.12-0.24,0.35,0.35,0,0,1,.12-0.24q0.24-.72-0.6-0.72a6.27,6.27,0,0,0-3.24,1.8l-0.9.9a3,3,0,0,1-1,.66,2.28,2.28,0,0,0-1.08,1.32c-0.24.4-.48,0.84-0.72,1.32l-0.72,1.44a12,12,0,0,0-.36,7.68,6.67,6.67,0,0,1,.36,1.26,4.06,4.06,0,0,1,0,1.38,1.15,1.15,0,0,0,.36.84,22.46,22.46,0,0,1,2.34,2.46,22,22,0,0,0,2.34,2.46,8.46,8.46,0,0,0,2,1.32,9.37,9.37,0,0,0,2.34.72,19.83,19.83,0,0,0,7.56-.72,8.1,8.1,0,0,0,2.52-1.32q1.08-1,2.16-2a20.14,20.14,0,0,0,2-2.4,10.41,10.41,0,0,0,1.68-8.64q-0.36-1.08-.72-2.22a12.07,12.07,0,0,0-1-2.22,2.33,2.33,0,0,1-.48-1.2,9.51,9.51,0,0,0-4.68-5.76q-1-.6-2-1.2a17.66,17.66,0,0,1-2-1.32,29.92,29.92,0,0,1-4.44-3.84,5.31,5.31,0,0,1-1.44-3.48,11.68,11.68,0,0,0-.12-1.74,8.58,8.58,0,0,1-.12-1.26v-2.52Zm13.44,34.38a0.51,0.51,0,0,1,0,.66c-0.16.16-.34,0.36-0.54,0.6s-0.38.44-.54,0.6a0.71,0.71,0,0,1-.72.12,0.77,0.77,0,0,1-.6-0.6,1.14,1.14,0,0,1,.36-1.32,4.68,4.68,0,0,1,.78-0.18,1.84,1.84,0,0,0,.78-0.3A0.66,0.66,0,0,1,181.14,195.85Zm2-4.38v-0.36c0.16-.16.24-0.16,0.24,0v0.36h0c0,0.16-.08.16-0.24,0h0Zm-21.12-6.36c0.08,0.24,0,.36-0.24.36s-0.48,0-.48-0.12c0-.32.12-0.48,0.36-0.48s0.36,0,.36.24h0Zm4.5,14.1a0.25,0.25,0,0,0-.18-0.06l0.24-.24a0.21,0.21,0,0,1,.24.24l-0.12.12A0.24,0.24,0,0,1,166.56,199.21Z" style="fill:#47372d"/><path d="M215.22,179.83a1.15,1.15,0,0,0,.24.6,17.13,17.13,0,0,1,.84,3.48q0.24,1.8.36,3.6v2a15.67,15.67,0,0,1-.12,1.92,14.25,14.25,0,0,1-1.44,5.22,8.14,8.14,0,0,1-4.2,3.3,7.51,7.51,0,0,1-7.44-.6,1.24,1.24,0,0,1-.84-0.48,5.51,5.51,0,0,1-2.22-2.82,9.53,9.53,0,0,1-.9-3.66,6.79,6.79,0,0,0-.24-1.56,26.83,26.83,0,0,1-.3-3.06,27.76,27.76,0,0,0-.3-3.06q-0.24-2.76-.36-5.64a43.62,43.62,0,0,1,.12-5.64q0.12-1.08.18-2.16a5.78,5.78,0,0,0-.3-2.16,3.1,3.1,0,0,1-.12-1v-9.48a3.7,3.7,0,0,1,3.72-4,0.52,0.52,0,0,0,.24-0.06,0.54,0.54,0,0,1,.24-0.06,17.72,17.72,0,0,1,3.54-.12q1.74,0.12,3.54.36a0.82,0.82,0,0,0,1.08-.36,1.63,1.63,0,0,0,.18-1.74,1.68,1.68,0,0,0-1.38-1,1.5,1.5,0,0,0-.72-0.06,3.63,3.63,0,0,1-.6.06H200.1a1.88,1.88,0,0,1-1.32-1,3.19,3.19,0,0,1-.36-1.44,18.84,18.84,0,0,0,.06-4q-0.18-1.92-.3-4-0.12-1.32-.48-1.44a2.79,2.79,0,0,0-1.32.12,1.17,1.17,0,0,0-1,.84,3.41,3.41,0,0,1-.06.66,6,6,0,0,1-.18.66,14.85,14.85,0,0,1-.66,2.46,23.26,23.26,0,0,1-1,2.34,14,14,0,0,1-1.86,2.7,9.37,9.37,0,0,1-2.58,2,2.82,2.82,0,0,0-.72.48,1.24,1.24,0,0,0-.72,1.2,1.32,1.32,0,0,0,1.56,1.56,1.66,1.66,0,0,0,.72.12,2.58,2.58,0,0,1,2,1.68,11.38,11.38,0,0,1,.36,2.76q0,3.48-.06,6.84t-0.06,6.84v1.44a6.83,6.83,0,0,1-.12,1.32,14.47,14.47,0,0,0-.12,1.8v1.68q0.24,2.64.36,5.22l0.24,5.22a9.47,9.47,0,0,0,2.16,5.76,11.68,11.68,0,0,1,1.32,1.92,9.69,9.69,0,0,0,3.6,3.6,18.61,18.61,0,0,0,4.56,1.8,15.14,15.14,0,0,0,10.44-.84,11.67,11.67,0,0,1,1.26-.42,11.52,11.52,0,0,0,1.26-.42,4.09,4.09,0,0,0,2.4-1.44q0.36-.36.66-0.72t0.54-.72a10.79,10.79,0,0,0,2-3.18,14.13,14.13,0,0,0,1-3.66,8,8,0,0,0-1-5,21.59,21.59,0,0,0-2.16-3.48,14.82,14.82,0,0,0-2.4-2.34,33.9,33.9,0,0,0-2.88-2A10.13,10.13,0,0,0,215.22,179.83ZM195.9,164.35a0.7,0.7,0,0,1,.12.48,0.35,0.35,0,0,0-.12.24c0,0.08-.08.12-0.24,0.12a2.41,2.41,0,0,1-1.56-.48,0.69,0.69,0,0,1-.12-0.48c-0.08-.16-0.06-0.22.06-0.18a0.27,0.27,0,0,0,.3-0.06h0.36a2.84,2.84,0,0,1,1.2.36h0Zm-0.6,21.72a0.65,0.65,0,0,1-.84-0.24c-0.08,0-.12-0.08-0.12-0.24a1.54,1.54,0,0,0,.54-0.6,0.94,0.94,0,0,1,.66-0.48,0.21,0.21,0,0,1,.24.24,1.79,1.79,0,0,1-.48,1.32h0Zm26.58,5.1a1.3,1.3,0,0,0-.06.42c0.08,0.4-.12.52-0.6,0.36a0.24,0.24,0,0,1-.18-0.06,0.48,0.48,0,0,0-.3-0.06,0.25,0.25,0,0,0-.06-0.18,0.24,0.24,0,0,1-.06-0.18,0.21,0.21,0,0,1,.24-0.24,0.3,0.3,0,0,1,.36,0c0.08,0.08.16,0,.24-0.12a1,1,0,0,0,.18-0.24,1,1,0,0,1,.18-0.24,0.11,0.11,0,0,0,.12.12A1.34,1.34,0,0,1,221.88,191.17Zm-25-8.82a0.43,0.43,0,0,1-.6,0,1.33,1.33,0,0,1-.48-0.48l0.12-.12h0.48a0.43,0.43,0,0,1,.48.48h0v0.12ZM207,201.73a0.24,0.24,0,0,0,.18.06l0.24,0.24a0.67,0.67,0,0,1-.36.24,0.51,0.51,0,0,1-.24-0.06,0.55,0.55,0,0,0-.24-0.06,0.48,0.48,0,0,1-.12-0.36,0.24,0.24,0,0,0,.18-0.06,0.25,0.25,0,0,1,.18-0.06A0.25,0.25,0,0,1,207,201.73Zm13.62-6.84s0,0.06-.12.06a0.32,0.32,0,0,1-.12-0.18,0.35,0.35,0,0,0-.12-0.18l0.12-.12a0.71,0.71,0,0,1,.36.36C220.66,194.83,220.62,194.85,220.62,194.89Zm-25.8-13.26a0.66,0.66,0,0,1-.24-0.36l0.12-.12,0.24,0.24c0,0.16,0,.24-0.12.24h0Zm3.36-27c-0.24,0-.28-0.08-0.12-0.24h0.12a0.11,0.11,0,0,1,.12.12Zm12.48,47c0.08,0,.12,0,0.12.06s0,0.06-.12.06-0.12.08-.12,0a0.11,0.11,0,0,1-.12-0.12h0.24Zm-10.32-48.36c0.16,0,.24,0,0.24.06s0,0.06-.12.06,0,0.08-.12,0l-0.12-.12h0.12Z" style="fill:#47372d"/><path d="M229.68,179.41q0.06,1.62.18,3.12t0.37,3q0.24,1.5.61,3.66,0.37,1.68.79,3.18a16.27,16.27,0,0,0,1.16,2.94l1.83,2.94,1.83,2.94a3.41,3.41,0,0,0,1.9,1.44q1,0.24,2,.54t2.08,0.54a5.6,5.6,0,0,0,5.22-1.44,2.09,2.09,0,0,0,.78-0.66,6.12,6.12,0,0,1,.66-0.78,23.8,23.8,0,0,0,3.6-6.36q0.48-1.2.84-2.4l0.72-2.4q0.36-1.44.6-2.94a13.09,13.09,0,0,0,.12-3.06q0-1.2.06-2.28t0.06-2.16a11,11,0,0,0,0-2.28q-0.12-1.08-.24-2.16a16,16,0,0,1-.3-2.34,13.69,13.69,0,0,0-.3-2.22q-0.36-1.92-.6-3.72a9.54,9.54,0,0,0-1.2-3.48,3.77,3.77,0,0,1-.24-1.08,5.11,5.11,0,0,0-1.44-3.12,11.87,11.87,0,0,0-1.32-1.74,21.85,21.85,0,0,1-1.44-1.74,4.61,4.61,0,0,0-2.88-1.8,10.53,10.53,0,0,0-6,.06,9.31,9.31,0,0,0-4.68,3.54,21.41,21.41,0,0,0-4,8.52,27.29,27.29,0,0,0-.72,5.1q-0.12,2.58-.12,4.74T229.68,179.41Zm7.08-6.78a25.76,25.76,0,0,0-.06-3,24.16,24.16,0,0,1,.72-5.88,4.51,4.51,0,0,0,.3-1.26,12.23,12.23,0,0,1,.18-1.26,5.37,5.37,0,0,1,1.07-2.7,7.19,7.19,0,0,1,2.14-1.74,2.18,2.18,0,0,1,3.09.72,15.4,15.4,0,0,1,3.32,8q0.47,3.48.65,6.9t0.3,6.9q0,0.6-.06,1.26a12.55,12.55,0,0,1-.18,1.26Q248,185,247.68,188t-0.53,6a12.8,12.8,0,0,1-1.07,4.08,3.51,3.51,0,0,1-3.09,2.16,3.54,3.54,0,0,1-3.32-1.92q-1-2-1.66-4a14.73,14.73,0,0,1-.83-4.26,15.47,15.47,0,0,0-.36-3.24,22.76,22.76,0,0,1-.36-4q0-1.92.12-4c0-.56,0-1.1.06-1.62s0.06-1.06.06-1.62Q236.7,174.07,236.76,172.63ZM234.06,189a0.49,0.49,0,0,1,.12.54q0,0.6-.36.36a0.46,0.46,0,0,1-.3-0.06,0.25,0.25,0,0,0-.18-0.06,0.49,0.49,0,0,1-.36-0.6,1.3,1.3,0,0,1,.6-0.48A0.66,0.66,0,0,1,234.06,189Zm17.52-18.42a0.84,0.84,0,0,1-.72-1,0.67,0.67,0,0,1,.36-0.24,0.69,0.69,0,0,1,.72.84,0.32,0.32,0,0,1-.36.36h0Zm1.68,3.72a0.48,0.48,0,0,1-.6.6l-0.48-.24a1.79,1.79,0,0,1-.48-0.36q1.2-1.08,1.56,0h0Zm-18.48,12h-0.24a0.54,0.54,0,0,1,.12-0.6,0.43,0.43,0,0,0,0-.6c-0.08-.08-0.08-0.12,0-0.12a0.21,0.21,0,0,1,.24.24v0.72a0.49,0.49,0,0,1-.12.36h0Zm-1.44-20.16-0.24.12a1.05,1.05,0,0,1-.48-0.12q-0.48,0-.12-0.36a0.49,0.49,0,0,1,.36-0.12,0.69,0.69,0,0,1,.48.48h0Zm1.32,15a0.32,0.32,0,0,1-.36-0.36,0.11,0.11,0,0,0,.12-0.12,0.11,0.11,0,0,1,.12-0.12c0.24-.08.36,0,0.36,0.24s-0.08.36-.24,0.36h0Zm14.88,15.12H249.3a0.15,0.15,0,0,1,0-.24,0.25,0.25,0,0,1,.18.06,0.24,0.24,0,0,0,.18.06h0a0.11,0.11,0,0,0-.12.12h0Zm1.56-13.32-0.24-.12a0.24,0.24,0,0,1,.06-0.18,0.25,0.25,0,0,0,.06-0.18l0.24,0.24c0.16,0.16.12,0.24-.12,0.24h0Z" style="fill:#47372d"/><path d="M272.34,202.27a6.49,6.49,0,0,0-.6-1q-0.6-1-1.62-2.52a13.53,13.53,0,0,1-1.62-4.8,8.7,8.7,0,0,1-.24-2.64,10.1,10.1,0,0,0,.12-1.32,14.37,14.37,0,0,1-.24-2.22v-1.5c0-.48,0-1,0.06-1.56s0.06-1.32.06-2.28v-3.12q0-1.56-.12-3.12,0-2.28-.06-4.56a34.37,34.37,0,0,1,.18-4.56,2.37,2.37,0,0,0,.06-0.9,6.19,6.19,0,0,1-.06-0.9,17.51,17.51,0,0,0,.06-2.46,9.28,9.28,0,0,1,.18-2.34,30.54,30.54,0,0,0,.24-3.78q0-1.86.12-3.78,0-1-.06-1.74t-0.18-1.62q-0.24-1.2-.42-2.34a9.94,9.94,0,0,1-.06-2.46q0-1.2.06-2.34a7.83,7.83,0,0,0-.3-2.46,1.67,1.67,0,0,1,.12-0.72,14.43,14.43,0,0,0,.18-2.94q-0.06-1.5-.18-2.94a27.13,27.13,0,0,1,0-6.24,27.8,27.8,0,0,0,.12-6.84,1.14,1.14,0,0,0-1-1.2,9.64,9.64,0,0,0-1.44-.36,8.89,8.89,0,0,0-1.44-.12h-5.76a0.76,0.76,0,0,0-.72.24l1,1.44a16.39,16.39,0,0,0,1.08,1.44,5.89,5.89,0,0,1,1.32,3.72c0,0.64,0,1.32.06,2a11.53,11.53,0,0,1-.06,2q0,3.12-.06,6.36t-0.06,6.36v2.34a11.81,11.81,0,0,0,.24,2.34q0.12,1.32.18,2.58t0.06,2.58v4.68q0,2.28-.12,4.68,0,3.12-.06,6.06t-0.18,6.06q0,4.56.18,9.12t0.42,9.12a12.74,12.74,0,0,1-2.52,8.64c-0.24.32-.46,0.6-0.66,0.84s-0.42.48-.66,0.72a0.94,0.94,0,0,0-.12,1.32,1.73,1.73,0,0,0,1.44.6h1.8a14.84,14.84,0,0,0,1.8-.12,10.06,10.06,0,0,1,1.14.06,2.85,2.85,0,0,1,1.14.42,1.8,1.8,0,0,0,1.8,0,4.3,4.3,0,0,1,2.16-.48l1.26-.24,1.5-.24A0.92,0.92,0,0,0,272.34,202.27Zm-5.88-40.8-0.66-.24-0.66-.24a0.48,0.48,0,0,1-.24-0.48q0.24-.6.48-0.36a6.77,6.77,0,0,1,1.56.6v0.36c0,0.4-.16.52-0.48,0.36h0Zm-1-33.24q0-.48.48-0.24,0.72,0.12.36,0.84c0,0.16-.12.24-0.36,0.24a0.59,0.59,0,0,1-.48-0.84h0Zm0,28.92a0.21,0.21,0,0,1-.24-0.24c-0.16-.16-0.16-0.24,0-0.24l0.42-.42,0.42-.42q0.24,1.2-.6,1.32h0Zm-2,5.52a0.48,0.48,0,0,1,.48-0.6,0.68,0.68,0,0,1,.36.24,0.92,0.92,0,0,1-.24.42,0.68,0.68,0,0,1-.36.3c-0.24-.16-0.32-0.28-0.24-0.36h0Zm3.24,24.12a0.35,0.35,0,0,1-.12.24,0.66,0.66,0,0,1-.72-0.36,0.21,0.21,0,0,1,.24-0.24c0.4,0,.6.12,0.6,0.36h0Zm-0.6,11.88c-0.16,0-.24-0.12-0.24-0.36a0.35,0.35,0,0,0,.12-0.24c0-.08.08-0.12,0.24-0.12a0.32,0.32,0,0,1,.36.36,0.33,0.33,0,0,1-.48.36h0Zm0.48-64c0,0.24-.08.28-0.24,0.12a0.69,0.69,0,0,1-.12-0.48l0.24-.24h0a1,1,0,0,1,.12.6h0ZM266.1,131a0.49,0.49,0,0,1,.24.48h-0.12a0.11,0.11,0,0,0-.12.12,0.48,0.48,0,0,1-.12-0.36Zm0.48,20.16c0,0.24-.08.36-0.24,0.36l-0.24-.12a0.24,0.24,0,0,1,.06-0.18,0.25,0.25,0,0,0,.06-0.18h0a0.5,0.5,0,0,1,.36.12h0ZM266,162.91c-0.16,0-.24,0-0.24-0.12-0.16-.16-0.12-0.24.12-0.24a0.35,0.35,0,0,1,.24.12,0.35,0.35,0,0,1-.12.24h0Zm-2.88,12c0,0.32-.08.4-0.24,0.24a0.11,0.11,0,0,1-.12-0.12v-0.12l0.24-.24h0a0.34,0.34,0,0,0,.12.24h0Zm3.12,10.32v0.24c-0.16,0-.24,0-0.24-0.12s0-.24.12-0.24a0.11,0.11,0,0,1,.12.12h0ZM264.3,187a0.25,0.25,0,0,1-.06.18,0.24,0.24,0,0,0-.06.18h-0.24a0.11,0.11,0,0,1-.12-0.12,0.24,0.24,0,0,1,.06-0.18,0.25,0.25,0,0,0,.06-0.18,0.48,0.48,0,0,0,.36.12h0Zm-0.72,4.8c0.08-.08.2,0,0.36,0.12a0.35,0.35,0,0,0-.12.24,0.24,0.24,0,0,1-.18-0.06,0.25,0.25,0,0,0-.18-0.06,0.35,0.35,0,0,1,.12-0.24h0Z" style="fill:#47372d"/><path d="M217.22,111.18a28.86,28.86,0,0,1,.08-3.76,0.68,0.68,0,0,0-.81-0.73q-1.13-.08-2.18-0.08h-2.18a6,6,0,0,0-.73,0,5.77,5.77,0,0,1-.73,0,0.65,0.65,0,0,1-.28.08,0.24,0.24,0,0,0-.2.16,0.37,0.37,0,0,0,.16.4l0.4,0.4a5.23,5.23,0,0,1,1.7,4.2q0.08,3.56.16,7.07t0.16,7.07q0.08,2.51.08,4.93t-0.16,4.85q-0.08.48-.12,1T212.45,138a4.31,4.31,0,0,1-1.45,2.75,1.9,1.9,0,0,0-.24.28,2,2,0,0,1-.24.28c-0.11.22-.08,0.32,0.08,0.32h0.89q0.81,0.08,1.62.08a16.13,16.13,0,0,1,1.62.08l1.05,0.16a1.6,1.6,0,0,0,1.05-.24,0.5,0.5,0,0,1,.44-0.12,3.05,3.05,0,0,1,.53.12,2,2,0,0,0,1.13,0c0.27,0,.35-0.13.24-0.4a3.77,3.77,0,0,0-.28-0.93q-0.2-.44-0.36-0.85a12.8,12.8,0,0,1-.81-1.78,7.1,7.1,0,0,1-.4-1.86,42.46,42.46,0,0,1-.24-4.53,39.51,39.51,0,0,1,.24-4.36q0.08-1.13.12-2.14a11.9,11.9,0,0,0-.12-2.14,12.32,12.32,0,0,1,0-2.83v-1.45q0-.89,0-1.74t0-1.74Q217.3,113.08,217.22,111.18Zm-3.64-3.11q-0.24.24-.24,0l0.24-.24a0.33,0.33,0,0,1,.24.08h0a0.45,0.45,0,0,1-.24.16h0Zm0,32.17c-0.11.11-.16,0.08-0.16-0.08a0.33,0.33,0,0,1,.08-0.24,0.14,0.14,0,0,1,.16.16,0.23,0.23,0,0,0-.08.16h0Zm1.86-28.13a0.4,0.4,0,0,1-.48,0c-0.11,0-.11-0.05,0-0.16a0.55,0.55,0,0,0,.24,0,0.26,0.26,0,0,1,.24.12v0.08Zm0.57,2a0.24,0.24,0,0,0-.08-0.16c0.11-.21.16-0.24,0.16-0.08a0.24,0.24,0,0,1,.08.16c0,0.05-.05.08-0.16,0.08h0ZM213.42,109a0.1,0.1,0,0,1,0,.16h-0.08V109Zm2.42,25.86c0,0.05,0,.05-0.08,0v-0.08c0.05,0,.08,0,0.08,0s0,0,.08,0l0.16,0.16h-0.24ZM217.22,100a1.21,1.21,0,0,0,0-1.21A3,3,0,0,0,215.6,97a1.75,1.75,0,0,0-2.34.16,2,2,0,0,0-.65,1.13,2,2,0,0,0,.16,1.37,3.55,3.55,0,0,0,1.29,1.37,3.22,3.22,0,0,0,1,.32,2.61,2.61,0,0,0,2.18-1.37h0Zm-2.75,19.4h-0.32v-0.24a0.41,0.41,0,0,1,.4-0.16,1.83,1.83,0,0,1-.24-1.54,0.21,0.21,0,0,1,.24-0.24c0.21,0,.32,0,0.32.08a3.06,3.06,0,0,1,.2.85,1.17,1.17,0,0,1-.28.85c-0.05.11-.09,0.14-0.12,0.08a0.13,0.13,0,0,0-.12-0.08h0q0.32,0.24-.08.4h0ZM214,127.1a0.32,0.32,0,0,0-.2,0c-0.32-.21-0.4-0.4-0.24-0.57s0.32-.21.65,0l0.24,0.24a0.47,0.47,0,0,1-.08.32c0,0.05-.08.08-0.24,0.08A0.16,0.16,0,0,1,214,127.1Zm1.5,3.44c0-.05.05-0.08,0.16-0.08s0.08,0,.08,0,0,0,.08,0a0.55,0.55,0,0,0,0,.24,0.57,0.57,0,0,1,0,.24l-0.24.24c-0.11.05-.16,0-0.16-0.24v-0.24h0v-0.24Zm-0.16,2.91a0.16,0.16,0,0,1-.12,0s0,0,0,0,0-.16.08-0.16a0.37,0.37,0,0,1,.4-0.08,0.14,0.14,0,0,1,.16.16c0.11,0.11.08,0.16-.08,0.16h-0.48Zm0.32-15a0.46,0.46,0,0,1-.32-0.32h0.08c0.05,0,.08,0,0.08,0s0,0,.08,0,0.24,0.11.24,0.32a0.23,0.23,0,0,0-.16.08h0Zm-2.1,4.2q-0.24,0-.24-0.12v-0.28c-0.11-.16-0.05-0.24.16-0.24a0.5,0.5,0,0,1,.4.4,0.77,0.77,0,0,1-.32.24h0Z" style="fill:#47372d"/><path d="M232.31,140.24a9.09,9.09,0,0,1-.56-1,7.36,7.36,0,0,1-1.28-3.48q-0.16-1.37-.28-2.75a18.66,18.66,0,0,1,0-2.75q0-2.83,0-5.62T230,119.06a12,12,0,0,1,.08-1.41,3.19,3.19,0,0,1,.48-1.33,0.66,0.66,0,0,0,.08-0.28,0.65,0.65,0,0,1,.08-0.28,6.92,6.92,0,0,1,1.13-3,17.23,17.23,0,0,1,2-2.42,3.83,3.83,0,0,1,1.54-.81,1.37,1.37,0,0,1,1.7.32,6.47,6.47,0,0,1,.73,1.09,3.62,3.62,0,0,1,.4,1.25q0.08,0.81.12,1.62t0,1.62l0.24,4.36,0.16,2.3q0.08,1.17.16,2.3,0,2.83,0,5.74t-0.2,5.82a8.55,8.55,0,0,1-1.45,4.45,1.53,1.53,0,0,0-.28.4,1.54,1.54,0,0,1-.28.4,0.42,0.42,0,0,0,.16.65A1.48,1.48,0,0,0,238,142a4.92,4.92,0,0,1,1.2-.16h5.26a0.75,0.75,0,0,0,1-.4,0.23,0.23,0,0,0,0-.36,1.43,1.43,0,0,1-.28-0.36,1.21,1.21,0,0,1-.24-0.32,10.05,10.05,0,0,1-1.33-2.71,8.64,8.64,0,0,1-.36-3q0.16-3.64.08-7.15t-0.16-7.15a6.52,6.52,0,0,1,.16-2.59,1.14,1.14,0,0,0,.08-0.48q-0.08-1.21-.08-2.38a18.1,18.1,0,0,0-.16-2.38,7,7,0,0,0-1.69-3.8,4.63,4.63,0,0,0-2.49-1.37,10.48,10.48,0,0,0-2.41-.2,6.15,6.15,0,0,0-2.41.61,5.61,5.61,0,0,0-.68.32,5.37,5.37,0,0,1-.68.32l-0.36.16-0.44.16a1,1,0,0,1-1.29-.65,5.9,5.9,0,0,1-.32-0.81,0.77,0.77,0,0,0-.72-0.48q-1.21,0-2.37,0t-2.38,0a2.85,2.85,0,0,0-1.13.24c-0.16.05-.19,0.19-0.08,0.4a2.83,2.83,0,0,0,.32.28,3.21,3.21,0,0,1,.32.28,6.36,6.36,0,0,1,1.49,2.22,5,5,0,0,1,.2,2.63,7.88,7.88,0,0,0-.12.85c0,0.3,0,.58,0,0.85v5.25q0.08,3.8.16,7.56t0.16,7.56a5.87,5.87,0,0,1-.57,2.75q-0.16.32-.36,0.65t-0.36.65l-0.48,1q-0.24.48-.49,0.89-0.41.65,0.4,0.65a1.81,1.81,0,0,0,.36,0,1.89,1.89,0,0,1,.36,0,26.34,26.34,0,0,1,2.9-.16,28.44,28.44,0,0,1,3,.16h1a9.62,9.62,0,0,1,1.17.08Q232.63,140.72,232.31,140.24Zm7.62-18c-0.05-.16-0.11-0.35-0.16-0.57s-0.05-.17,0-0.2a0.13,0.13,0,0,1,.16,0,0.66,0.66,0,0,1,.4.24c0.16,0.16.19,0.27,0.08,0.32a0.36,0.36,0,0,0-.24.44,1.17,1.17,0,0,1,0,.61l-0.16.08-0.08-.16a0.33,0.33,0,0,1-.08-0.24h0A0.74,0.74,0,0,0,239.93,122.21Zm-11.4-14a1.25,1.25,0,0,0-.24.32,2.5,2.5,0,0,1-.77-0.16,1.87,1.87,0,0,1-.36-0.65,0.44,0.44,0,0,1,.4-0.12,2.43,2.43,0,0,0,.4,0,1.36,1.36,0,0,1,.32,0,1.28,1.28,0,0,0,.32,0A0.48,0.48,0,0,1,228.54,108.23Zm-1.13,21.5c-0.27.11-.4,0-0.4-0.24a0.47,0.47,0,0,1,.08-0.32c0.05-.11.15-0.11,0.28,0a1,1,0,0,1,.28.32h0ZM240.66,119a0.35,0.35,0,0,1-.16,0,0.37,0.37,0,0,0-.16,0,0.07,0.07,0,0,1-.08-0.08v-0.08a0.47,0.47,0,0,1,.32-0.16,0.33,0.33,0,0,1,.32.16,0.21,0.21,0,0,1-.24.24h0Zm-11.88,15.84c0-.16.05-0.19,0.16-0.08l0.08,0.08v0.08l-0.16.16h0a0.33,0.33,0,0,1-.08-0.24h0Zm11-18.43-0.16.08a0.14,0.14,0,0,1-.16-0.16l0.16-.16h0a0.46,0.46,0,0,1,.16.24h0Zm3.72,23.84a0.47,0.47,0,0,1-.32.08c-0.11-.11-0.11-0.16,0-0.16h0.32v0.08Zm-2-.73v-0.08h0.08Z" style="fill:#47372d"/></svg>