
<svg xmlns="http://www.w3.org/2000/svg" version="1.1" xmlns:xlink="http://www.w3.org/1999/xlink" preserveAspectRatio="none" x="0px" y="0px" width="225px" height="180px" viewBox="0 0 225 180">
<defs>
<g id="crown_0_Layer0_0_FILL">
<path fill="#000000" stroke="none" d="
M 309.85 -635
L 305.8 -635
Q 303.25 -635 302.6 -634.65 302 -634.35 302.5 -633.3 303.45 -630.65 303.8 -629.1 304.05 -627.65 303.75 -627.3 303.5 -626.95 302.35 -627.3 297.2 -628.85 296.35 -628.65 295.45 -628.4 295.8 -625.65
L 296.15 -622.3 299.8 -623.6
Q 302.8 -624.55 303.6 -623.95 304.35 -623.35 303.6 -620.65 303.25 -619.65 301.95 -618.5 300.65 -617.35 298.8 -616.5 294.5 -614.45 292.55 -611.55 290.6 -608.65 290.6 -604.3
L 290.5 -599.5 294.15 -599.15
Q 296.5 -598.95 297.25 -599.3 298 -599.65 298.5 -601.15 299.3 -603.9 302.35 -609.95 305.3 -616 305.85 -616 306.45 -616 309.55 -609.95 312.6 -604.05 313.5 -601.3 313.9 -599.95 314.7 -599.45 315.5 -599 317.5 -599 319.7 -599 320.45 -599.45 321.25 -599.9 321.6 -601.5 322.65 -605.85 319.95 -610.4 317.3 -615 312.5 -617.1 308.2 -618.9 307.6 -621.6 306.95 -624.05 307.25 -624.65 307.75 -624.95 311.85 -623.65
L 316 -622.15 316 -625.6
Q 316 -628.35 315.05 -628.6 314.1 -628.8 308.75 -627.3 307.15 -626.95 307.1 -627.55 307.05 -628.2 308.35 -631.5
L 309.85 -635 Z"/>
</g>

<g id="crown_0_Layer0_1_FILL">
<path fill="#000000" stroke="none" d="
M 359.85 -605.6
Q 359 -606.15 355.95 -601.25 352.85 -596.35 351.5 -592.1 350.4 -588.7 349.65 -588.1 348.95 -587.55 346.2 -587.8 342 -588.15 338.7 -584.45 335.4 -580.75 333.6 -573.6
L 332.85 -570.65 336 -573.35
Q 339.15 -575.95 342.05 -575.95 344.9 -575.95 347 -573.3 349.4 -570.25 348.75 -566.25 348.15 -562.55 345.2 -559.1 338.45 -551.3 328.85 -552.15 318.9 -553.15 313.4 -561.85 310.95 -565.75 310.9 -569.5 310.85 -573.55 313.6 -576.35 316.6 -579.3 319.55 -578.95 322.5 -578.65 326.2 -575
L 330.25 -571 329.75 -575.65
Q 329 -583.15 325.6 -587.3 322.15 -591.45 316.75 -591.35 314.3 -591.3 313.65 -591.65 313 -592 313 -593.5 313 -596.2 310.85 -602.7 308.7 -609.2 307.2 -611
L 305.35 -613.3 303 -607.85
Q 300.8 -602.4 299.65 -597
L 298.6 -591.5 294.85 -591.5
Q 289.7 -591.5 286.8 -587.4 283.9 -583.3 282.5 -574.1
L 281.8 -569.65 286.15 -574.35
Q 290.2 -578.55 293.05 -578.95 295.85 -579.3 299.1 -576.1 302.8 -572.35 301.65 -567.2 300.55 -562.45 296.05 -558.3 291.5 -554.15 285.85 -552.7 279.65 -551.1 274.65 -553.6 269.05 -556.4 265.7 -561.4 262.35 -566.4 263.5 -570.15 264.9 -574.85 268.5 -575.75 272.1 -576.6 276.1 -573.3
L 279.3 -570.5 278.65 -573.1
Q 276.55 -581.15 272.35 -585.35 270.65 -587.05 269.4 -587.55 268.05 -588 265.8 -587.8 263.05 -587.55 262.35 -588.1 261.65 -588.65 260.5 -591.85 259.25 -595.5 256.1 -600.7 252.95 -606 252 -606 251.1 -606 250.4 -601.25 249.65 -596.45 249.8 -591.15 249.85 -587.15 249.6 -586.05 249.35 -585 248.5 -585.35 246.65 -586.05 244.2 -584.55 241.75 -583.05 240.5 -580.5 239.85 -579.05 239.45 -576.35 239 -573.55 239 -570.85
L 239 -564.65 242 -568.8
Q 247.6 -576.55 253.65 -570.35 255.4 -568.7 255.75 -567.3 256.05 -565.95 255.8 -561.85 255.45 -557.7 254.75 -556.15 254 -554.5 251.15 -551.65 248.25 -548.75 246.8 -548.15 245.35 -547.5 241.65 -547.5 234.5 -547.5 229.15 -552.6 223.75 -557.7 225.6 -562.8 226.15 -564.5 227.1 -565.05 228.05 -565.55 230.8 -565.8 232.6 -565.95 234.3 -565.7 236 -565.4 236.6 -564.85 238.15 -563.55 237.9 -564.7 237.65 -565.8 235.8 -568.6 233.45 -572 230.45 -573.6 227.45 -575.15 224.35 -574.65 222.15 -574.3 221.3 -574.65 220.5 -575.05 219.6 -576.8 219 -577.95 217.35 -579.9 215.7 -581.85 214 -583.5
L 209.8 -587.5 212.5 -581.5
Q 215.05 -575.85 216.15 -572.8 216.5 -571.6 217.25 -570.8 217.95 -570 218.5 -570 220.15 -570 221.15 -568.25 222.2 -566.5 221.35 -565.15 220.4 -563.65 223.65 -554.15 226.85 -544.65 228.6 -543.65 229.4 -543.15 229.65 -542.15 229.9 -541.1 229.6 -539.15 229.15 -536.35 229.3 -535.4 229.5 -534.05 231 -533.65 233.2 -533.05 246.6 -534.35 273.55 -537.2 305.2 -537.35 336.65 -537.5 360.5 -535 365.5 -534.5 376.35 -533.35
L 383.2 -532.65 382.5 -537.8
Q 382 -541 382.25 -542.15 382.5 -543.2 383.75 -543.85 385.95 -545.1 388.9 -554.1 391.9 -563.1 390.75 -565 389.8 -566.6 390.75 -568.3 391.75 -570 393.6 -570 395 -570 395 -570.35 395 -570.95 398.6 -579.15
L 402.1 -587.5 398.5 -584
Q 395 -580.7 392.85 -577.3 391.6 -575.2 390.7 -574.75 389.75 -574.3 387.2 -574.65 384.9 -575 383.5 -574.55 382.15 -574.1 380.2 -572.5 378.85 -571.4 377.4 -569.65 376 -568 375.35 -566.8 374.2 -564.7 374.3 -564.4 374.35 -564.1 375.85 -564.85 377.85 -565.95 381.25 -565.95 384.6 -565.95 385.75 -564.8 388.65 -561.95 385.9 -556.7 383.2 -551.45 377.5 -548.85 373.45 -547 370.2 -547.1 366.95 -547.2 363.85 -549.3 357.95 -553.3 356.25 -559.75 354.6 -566.2 358.5 -570.35 361.65 -573.8 365.3 -572.75 368.95 -571.65 371.75 -566.5 372.45 -565.3 372.7 -566.05 372.9 -566.8 373 -570.6 373 -573.15 372.65 -575.85 372.35 -578.55 371.85 -579.85 371 -582.45 368.25 -584.25 365.5 -586.1 363.6 -585.35 362.6 -584.95 362.3 -586.05 362.05 -587.15 362.1 -591.1 362.2 -596.5 361.5 -600.7 360.85 -604.9 359.85 -605.6
M 355.2 -583
Q 355.95 -583 356.65 -582.55 357.35 -582.1 357.6 -581.5 358.15 -580.4 357.6 -577.35 357.25 -575.85 356.5 -575.4 355.8 -574.9 354.2 -575.15 350.65 -575.55 351.1 -579.25 351.5 -583 355.2 -583
M 348.85 -550.85
Q 349.7 -550.9 351.5 -549.65 353.45 -548.15 352.7 -545.55 352 -543 349.7 -543 346.45 -543 345.45 -545.1 344.4 -547.2 346.6 -549.35 348.05 -550.8 348.85 -550.85
M 304.7 -587.75
Q 307.4 -588.65 309.35 -585.8 310.35 -584.35 310.4 -583.6 310.45 -582.85 309.6 -581.5 307.65 -578.6 304.85 -579.25 302 -579.95 302 -583.35 302 -586.85 304.7 -587.75
M 301.1 -549.6
Q 301.05 -552.05 303 -554 306.55 -557.55 310.2 -554.3 312 -552.65 312 -549.3 311.95 -545.95 310 -544 307.95 -542 306.45 -542.1 305 -542.25 303.1 -544.6 301.15 -547.2 301.1 -549.6
M 254.65 -582.3
Q 255.5 -583.2 257.25 -582.95 259 -582.75 260 -581.6 262.15 -578.9 260.15 -576.35 258.1 -573.85 255.5 -576 254.4 -576.95 254.1 -579.2 253.8 -581.4 254.65 -582.3
M 259.1 -545.8
Q 258.5 -548.15 260.5 -549.65 262 -550.75 263.95 -550 265.9 -549.25 266.65 -547.35 267.3 -545.7 265.8 -544.3 264.3 -542.9 262.1 -543.15 259.65 -543.5 259.1 -545.8 Z"/>
</g>

<g id="crown_0_Layer0_2_FILL">
<path fill="#000000" stroke="none" d="
M 295.75 -597.8
Q 294.45 -597.85 286 -596.5 276.25 -594.75 270 -592.6
L 262.5 -590.1 269 -590.35
Q 274.85 -590.6 286.3 -592.5 293.05 -593.6 295.05 -594.3 297 -594.95 297 -596.1 297 -597.75 295.75 -597.8 Z"/>
</g>

<g id="crown_0_Layer0_3_FILL">
<path fill="#000000" stroke="none" d="
M 349.5 -590
L 344 -592
Q 340 -593.4 333.05 -594.9 325.95 -596.45 319.25 -597.35 316.45 -597.75 315.75 -597.55 315 -597.35 315 -596.15 315 -595.05 317 -594.35 318.95 -593.7 325.75 -592.5 337.1 -590.6 343 -590.35
L 349.5 -590 Z"/>
</g>

<g id="crown_0_Layer0_4_FILL">
<path fill="#000000" stroke="none" d="
M 236.25 -574.9
Q 236 -574.9 235.6 -574.1 234.85 -572.9 235.35 -572.3 236.05 -571.6 236.6 -572.3 237.2 -573 236.8 -574.1 236.45 -574.9 236.25 -574.9 Z"/>
</g>

<g id="crown_0_Layer0_5_FILL">
<path fill="#000000" stroke="none" d="
M 375.25 -574.6
Q 375 -574.4 375 -573 375 -571.55 375.25 -571.35 375.5 -571.1 376.2 -571.8 376.9 -572.45 376.9 -572.95 376.9 -573.5 376.2 -574.15 375.5 -574.85 375.25 -574.6 Z"/>
</g>

<g id="crown_0_Layer0_6_FILL">
<path fill="#000000" stroke="none" d="
M 381.15 -526.9
Q 381.25 -528.8 378.25 -529.35 366.7 -531.85 328.4 -533.05 290.1 -534.3 269.5 -532.85 257.45 -532.05 244.9 -530.65 231.9 -529.25 231.35 -528.65 230.6 -528 231.65 -526.5 232.7 -525 233.85 -525 235.35 -525 236.7 -523.8 238 -522.65 238 -521.3 238 -520.1 235.8 -518 233.65 -515.95 234.1 -515.6 234.3 -515.4 237.05 -515.5 239.75 -515.6 243.5 -516 270.75 -518.75 311.6 -518.6 352.7 -518.5 374.75 -515.5 377.35 -515.1 378.15 -515.3 379 -515.45 379 -516.35 379 -517.05 378.45 -517.55 377.95 -518 377.1 -518 373.4 -518 374.35 -522.6 374.7 -524 375.5 -524.5 376.25 -525 378 -525 381.05 -525 381.15 -526.9
M 345.1 -528.9
Q 346.9 -528.85 348 -527.5 349.15 -526.05 348.45 -524.1 347.7 -522.1 345.85 -521.5 343.05 -520.6 341.55 -523.15 340.05 -525.7 342.2 -527.8 343.4 -529 345.1 -528.9
M 353.25 -523.2
Q 352.7 -524.85 353.35 -526.6 354 -528.25 356.55 -527.95 359.1 -527.7 360.1 -525.85 360.75 -524.55 360.55 -523.7 360.35 -522.95 359.1 -521.6 357.8 -520.4 357 -520.2 356.25 -520 355.2 -520.6 353.75 -521.5 353.25 -523.2
M 332.65 -529.9
Q 334.05 -529.7 335.35 -527.8 336.95 -525.55 335.9 -523.7 334.9 -521.9 332.2 -522.15 329.95 -522.4 329.25 -524.55 328.5 -526.7 330 -528.6 331.25 -530.1 332.65 -529.9
M 370.35 -524.8
Q 371.35 -523.2 370.5 -521.35 369.6 -519.55 367.75 -519.15 366.6 -518.95 364.8 -520.4 363 -521.85 363 -523 363 -524.15 364.8 -525.55 366.6 -527 367.75 -526.8 368.35 -526.65 369.15 -526.05 369.9 -525.45 370.35 -524.8
M 266.1 -528.55
Q 268.2 -529.55 270.35 -527.35 271.8 -525.95 271.85 -525.1 271.9 -524.25 270.65 -522.5 269.15 -520.5 266.6 -521.2 264 -521.95 264 -524.3 264 -527.55 266.1 -528.55
M 279.85 -529.85
Q 280.65 -529.9 282.35 -528.65 285.1 -526.75 283.1 -523.8 281.1 -520.85 278.3 -522.6 276.5 -523.7 276.25 -525.3 276.05 -526.85 277.5 -528.35 279 -529.8 279.85 -529.85
M 247.35 -524.8
Q 248.3 -523.2 247.45 -521.35 246.6 -519.55 244.8 -519.15 243.6 -518.95 241.8 -520.4 240 -521.85 240 -523 240 -524.15 241.8 -525.55 243.6 -527 244.8 -526.8 245.4 -526.65 246.15 -526.05 246.95 -525.45 247.35 -524.8
M 256.95 -527.55
Q 257.8 -527.05 258.35 -526.35 259.8 -525.05 259.9 -524.4 260 -523.75 259 -521.85 257.6 -519.4 254.8 -520.25 252 -521.1 252 -524 252 -525.4 253.15 -526.7 254.3 -528 255.6 -528 256.15 -528 256.95 -527.55
M 304.15 -529.4
Q 306.7 -530.9 308.75 -528.8 310.15 -527.45 309.9 -525.65 309.7 -523.85 308.1 -523 306.25 -522 304.65 -522.6 303.1 -523.2 302.5 -525.1 301.6 -527.9 304.15 -529.4
M 318.6 -529.65
Q 321.2 -530.65 323 -528.5 324.05 -527.2 323.5 -525.2 322.95 -523.15 321.35 -522.6 319.75 -522 317.85 -523.1 316 -524.2 316 -525.8 316 -528.65 318.6 -529.65
M 294.6 -529.55
Q 295.45 -529.1 296 -528.5 297.95 -526.1 295.9 -523.5 293.8 -520.9 291.3 -522.6 288.7 -524.25 289.35 -527.1 290 -530 293 -530 293.75 -530 294.6 -529.55 Z"/>
</g>

<g id="crown_0_Layer0_7_FILL">
<path fill="#000000" stroke="none" d="
M 379.5 -510
Q 379.5 -511.25 374.25 -511.9 368.75 -512.55 347.25 -513.85 332.75 -514.8 305.3 -514.8 278.1 -514.8 263.5 -513.85 243.3 -512.55 238.3 -511.85 233.5 -511.15 233.15 -509.6 232.9 -508.25 234.25 -508.05 235.7 -507.8 242.6 -508.3 269.55 -510.05 291.6 -510.4 313.9 -510.8 335.5 -509.85 366.1 -508.55 372.8 -508.55 379.5 -508.6 379.5 -510 Z"/>
</g>
</defs>

<g transform="matrix( 1.128662109375, 0, 0, 1.128662109375, 4,17.5) ">
<g transform="matrix( 1, 0, 0, 1, -209.8,635) ">
<use xlink:href="#crown_0_Layer0_0_FILL"/>
</g>

<g transform="matrix( 1, 0, 0, 1, -209.8,635) ">
<use xlink:href="#crown_0_Layer0_1_FILL"/>
</g>

<g transform="matrix( 1, 0, 0, 1, -209.8,635) ">
<use xlink:href="#crown_0_Layer0_2_FILL"/>
</g>

<g transform="matrix( 1, 0, 0, 1, -209.8,635) ">
<use xlink:href="#crown_0_Layer0_3_FILL"/>
</g>

<g transform="matrix( 1, 0, 0, 1, -209.8,635) ">
<use xlink:href="#crown_0_Layer0_4_FILL"/>
</g>

<g transform="matrix( 1, 0, 0, 1, -209.8,635) ">
<use xlink:href="#crown_0_Layer0_5_FILL"/>
</g>

<g transform="matrix( 1, 0, 0, 1, -209.8,635) ">
<use xlink:href="#crown_0_Layer0_6_FILL"/>
</g>

<g transform="matrix( 1, 0, 0, 1, -209.8,635) ">
<use xlink:href="#crown_0_Layer0_7_FILL"/>
</g>
</g>
</svg>
